<?xml version="1.0" standalone="no"?>
<!DOCTYPE svg PUBLIC "-//W3C//DTD SVG 20010904//EN"
 "http://www.w3.org/TR/2001/REC-SVG-20010904/DTD/svg10.dtd">
<svg version="1.0" xmlns="http://www.w3.org/2000/svg"
 width="1024.000000pt" height="1024.000000pt" viewBox="0 0 1024.000000 1024.000000"
 preserveAspectRatio="xMidYMid meet">

<g transform="translate(0.000000,1024.000000) scale(0.100000,-0.100000)"
fill="#000000" stroke="none">
<path d="M4495 9786 c-141 -27 -254 -105 -309 -214 -30 -59 -115 -352 -144
-498 -11 -54 -35 -173 -52 -264 -53 -278 -81 -413 -86 -422 -3 -4 -20 -8 -37
-8 -111 0 -532 -88 -698 -146 -114 -39 -138 -52 -191 -103 -30 -28 -38 -42
-38 -71 0 -67 44 -110 173 -170 172 -81 464 -172 717 -224 l115 -23 3 -35 c3
-33 -1 -38 -42 -62 -141 -83 -186 -328 -100 -549 l19 -49 -25 -20 c-56 -44
-229 -220 -296 -299 -82 -97 -222 -283 -316 -419 -89 -128 -289 -484 -398
-707 -58 -119 -95 -183 -105 -183 -33 0 -554 -183 -809 -284 -275 -109 -424
-179 -433 -203 -5 -13 52 -142 79 -177 14 -17 12 -24 -13 -65 -43 -69 -122
-297 -349 -1006 -22 -66 -57 -181 -80 -255 -23 -74 -58 -191 -80 -260 -21 -69
-57 -188 -80 -265 -23 -77 -57 -187 -75 -245 -37 -118 -114 -370 -181 -595
-25 -82 -61 -195 -81 -250 -19 -55 -48 -138 -65 -184 -57 -164 -71 -243 -72
-401 0 -343 119 -629 330 -790 l62 -47 108 -6 c60 -3 2029 -5 4375 -4 l4265 2
98 84 c140 120 212 237 272 437 21 73 27 116 31 240 8 223 -3 278 -140 704
-36 113 -95 306 -132 430 -36 124 -79 266 -95 315 -15 50 -52 167 -80 260 -28
94 -64 211 -80 260 -16 50 -56 182 -90 295 -135 447 -340 1074 -382 1170 -14
30 -41 76 -61 102 l-37 48 50 77 c93 141 89 147 -123 240 -170 74 -794 301
-957 348 -52 15 -101 33 -109 39 -8 6 -36 56 -61 111 -55 116 -251 484 -301
565 -146 236 -305 457 -449 625 -43 50 -132 143 -198 207 l-121 117 15 48 c61
199 59 353 -6 457 -17 25 -50 61 -75 78 -39 28 -45 36 -45 68 l0 37 68 12
c199 36 605 162 743 231 184 93 219 204 87 279 -111 64 -488 166 -770 207 -65
9 -118 20 -118 24 0 13 -91 498 -120 636 -44 215 -117 470 -152 536 -57 107
-153 181 -269 207 -64 15 -194 13 -269 -4 -36 -9 -132 -42 -215 -75 -82 -32
-178 -66 -213 -75 -62 -16 -65 -15 -150 11 -48 14 -136 45 -197 69 -213 83
-323 103 -440 81z m325 -163 c63 -23 162 -58 220 -79 88 -31 118 -37 185 -37
73 1 96 6 279 72 110 39 226 76 258 82 103 20 239 -3 303 -51 45 -34 74 -84
108 -187 39 -120 132 -536 124 -557 -3 -7 -20 -16 -39 -19 -18 -3 -141 -27
-273 -52 -298 -57 -336 -62 -565 -81 -259 -22 -473 -8 -848 56 -170 28 -429
84 -439 94 -13 12 95 473 142 607 22 62 60 113 107 144 71 47 104 55 218 52
93 -3 118 -8 220 -44z m-651 -894 c35 -13 36 -14 17 -60 -8 -19 -22 -65 -31
-104 -9 -38 -26 -100 -36 -137 -19 -64 -22 -68 -49 -68 -38 0 -38 3 0 171 53
232 45 217 99 198z m-136 -495 c233 -53 544 -103 792 -126 232 -21 645 -17
875 10 224 26 481 70 659 112 68 17 143 30 167 30 61 0 197 -21 209 -32 6 -6
4 -7 -7 -3 -22 9 -23 -1 -3 -21 8 -8 11 -22 8 -31 -4 -11 -3 -14 6 -9 6 4 9
16 6 27 -5 13 -2 19 10 19 9 0 13 -4 10 -10 -3 -5 -1 -10 5 -10 6 0 9 -4 6 -9
-3 -5 1 -11 9 -15 8 -3 15 -2 15 2 0 4 9 8 20 8 19 0 19 0 0 -21 -16 -17 -17
-22 -6 -22 8 0 12 5 9 10 -4 6 0 8 10 4 12 -4 17 -1 18 11 1 16 2 16 6 0 2 -9
-1 -26 -7 -38 -9 -17 -14 -19 -26 -9 -8 7 -14 7 -14 1 0 -11 23 -22 46 -22 8
0 11 6 7 17 -4 11 -3 14 5 9 8 -4 16 3 22 18 5 14 12 26 14 26 10 0 -4 -44
-16 -52 -10 -6 -10 -10 2 -18 12 -8 11 -10 -7 -10 -12 0 -25 -5 -29 -12 -5 -7
-2 -9 8 -5 10 3 25 -4 38 -18 l22 -23 -23 -4 c-43 -6 -30 -24 16 -21 26 2 45
-2 45 -8 0 -5 5 -7 10 -4 8 5 7 11 -1 21 -6 7 -9 21 -5 29 3 8 1 15 -4 15 -9
0 -14 -14 -11 -32 0 -5 -3 -8 -9 -8 -5 0 -10 6 -10 14 0 8 -4 16 -9 18 -10 3
-14 22 -12 51 0 10 6 15 11 12 6 -4 8 -10 5 -15 -3 -5 9 -5 27 1 18 5 34 9 35
9 2 0 3 5 3 11 0 5 -5 7 -12 3 -7 -5 -8 -3 -3 6 6 10 11 9 22 -5 16 -23 17
-35 2 -35 -5 0 -7 -5 -3 -12 4 -7 3 -8 -5 -4 -6 4 -8 12 -5 18 5 8 1 9 -10 5
-10 -4 -21 -7 -26 -7 -4 0 -11 -7 -14 -16 -5 -14 -4 -15 8 -5 18 15 40 5 32
-16 -4 -8 -1 -11 5 -8 6 4 16 -1 23 -10 11 -15 13 -15 25 -1 8 9 10 16 5 16
-4 0 2 9 13 19 12 11 23 26 26 33 2 7 8 10 12 6 4 -4 -3 -21 -15 -37 -12 -17
-17 -31 -11 -31 6 0 11 5 11 11 0 5 5 7 10 4 15 -9 2 -25 -21 -25 -11 0 -18
-4 -14 -10 3 -5 12 -7 20 -3 8 3 15 0 15 -6 0 -6 -11 -10 -24 -9 -14 1 -22 6
-20 10 3 4 0 8 -5 8 -6 0 -11 -6 -11 -12 0 -10 -3 -9 -9 1 -7 11 -10 9 -16 -8
-4 -13 -4 -25 -1 -28 3 -4 6 -1 6 5 0 7 9 12 21 12 11 0 17 -5 14 -10 -4 -6
-12 -7 -18 -4 -7 4 -8 3 -4 -2 13 -14 67 -11 67 3 0 7 14 20 31 28 28 15 32
15 48 1 24 -22 26 -20 28 12 0 15 -1 19 -4 10 -2 -10 -9 -18 -13 -18 -6 0 -6
10 0 24 6 17 5 26 -3 29 -9 4 -9 7 0 17 9 10 13 7 19 -14 8 -34 21 -33 37 2 6
15 16 30 21 33 14 10 96 -21 96 -36 0 -20 -49 -55 -76 -55 -20 0 -23 4 -19 30
2 17 -1 30 -6 30 -5 0 -10 -15 -10 -32 -1 -18 -3 -25 -6 -15 -2 9 -9 15 -14
12 -15 -10 -10 -33 9 -37 9 -2 -10 -13 -45 -27 -34 -13 -66 -20 -72 -17 -5 3
-11 2 -13 -2 -15 -39 -524 -174 -815 -217 -59 -9 -180 -27 -268 -40 -360 -54
-751 -75 -1040 -56 -392 26 -989 116 -1300 196 -203 52 -550 180 -577 212 -24
29 46 65 232 119 122 36 205 53 375 79 195 30 206 30 338 -1z m3038 -111 c13
-16 12 -17 -3 -4 -10 7 -18 15 -18 17 0 8 8 3 21 -13z m-117 -22 c-2 -3 -12 3
-22 13 -16 17 -16 18 5 5 12 -7 20 -15 17 -18z m171 -58 c0 -1 -11 0 -23 4
-17 4 -20 9 -12 18 6 7 8 26 5 42 -3 17 2 10 13 -17 10 -25 18 -46 17 -47z
m28 45 c-6 -30 -26 -40 -21 -10 3 15 20 43 25 38 1 0 -1 -13 -4 -28z m63 19
c2 -7 1 -24 -5 -38 l-9 -24 -11 28 c-11 29 -8 47 10 47 5 0 12 -6 15 -13z
m-171 -35 c-3 -3 -11 0 -18 7 -9 10 -8 11 6 5 10 -3 15 -9 12 -12z m-28 -34
c-3 -8 -6 -5 -6 6 -1 11 2 17 5 13 3 -3 4 -12 1 -19z m140 -3 c0 -8 -6 -15
-13 -15 -8 0 -11 6 -8 15 4 8 9 15 13 15 4 0 8 -7 8 -15z m-967 -627 c0 -95
-4 -220 -9 -278 -6 -58 -13 -166 -16 -240 -16 -337 -26 -485 -36 -524 -23 -88
-91 -183 -270 -377 -115 -125 -217 -208 -312 -253 -89 -43 -221 -59 -407 -51
-231 11 -306 50 -520 265 -186 187 -289 326 -312 420 -4 19 -12 152 -18 295
-7 175 -15 281 -26 325 -12 50 -16 123 -18 323 0 141 2 257 5 257 3 0 50 -6
105 -14 54 -8 139 -18 187 -22 95 -7 107 -19 41 -39 -102 -30 -192 -109 -216
-186 -20 -69 26 -91 89 -43 18 14 58 36 88 49 l55 25 0 -35 c0 -47 22 -98 51
-119 32 -22 97 -20 136 4 37 22 48 41 58 93 4 20 10 37 14 37 3 0 39 -18 79
-40 78 -43 135 -52 146 -24 14 35 4 99 -24 166 -16 38 -30 71 -30 72 0 0 90 1
199 1 l199 0 -19 -47 c-10 -26 -25 -64 -34 -84 -8 -20 -15 -54 -15 -75 0 -33
4 -41 26 -50 33 -12 53 -6 133 42 36 22 68 39 73 39 4 0 11 -19 15 -42 16
-106 148 -143 213 -60 14 17 20 40 20 74 0 48 0 48 28 42 35 -9 77 -30 129
-65 47 -33 65 -36 83 -14 10 13 11 24 1 56 -18 61 -88 124 -188 171 -46 22
-82 42 -79 45 2 3 29 7 58 9 70 6 272 35 277 40 2 2 13 4 23 4 17 0 18 -12 18
-172z m320 5 c37 -35 50 -89 44 -191 -5 -91 -6 -99 -45 -225 -37 -119 -74
-171 -149 -209 -30 -15 -60 -28 -67 -28 -9 0 -11 23 -6 88 5 74 10 95 38 142
18 30 38 71 44 91 10 30 23 42 83 75 87 48 112 86 84 130 -16 24 -22 26 -59
20 -23 -4 -64 -20 -90 -36 -27 -17 -50 -30 -53 -30 -2 0 -4 15 -4 33 1 72 72
167 126 167 13 0 37 -12 54 -27z m-2448 -20 c20 -20 31 -45 39 -87 6 -32 8
-60 5 -63 -3 -3 -19 6 -36 20 -37 31 -94 45 -115 27 -20 -16 -28 -70 -16 -101
7 -20 19 -28 49 -32 48 -8 68 -29 87 -95 9 -28 31 -69 50 -92 32 -38 35 -48
35 -103 0 -34 3 -72 6 -84 8 -29 -13 -30 -64 -4 -56 29 -97 78 -136 162 -55
121 -76 202 -76 288 0 93 14 146 47 178 20 21 31 24 61 19 20 -3 48 -18 64
-33z m2649 -690 c186 -190 318 -357 491 -624 121 -184 167 -266 282 -496 119
-239 299 -674 285 -688 -8 -7 -207 -78 -405 -145 -260 -87 -434 -155 -507
-200 -30 -18 -94 -70 -141 -114 -74 -69 -86 -86 -86 -113 0 -29 5 -35 53 -59
28 -15 81 -43 117 -64 262 -151 853 -478 953 -526 31 -16 57 -34 57 -41 0 -8
-16 -45 -35 -83 -20 -39 -62 -130 -94 -203 -79 -179 -104 -233 -166 -362 -28
-60 -58 -126 -65 -145 -14 -36 -212 -433 -229 -459 -7 -11 -17 -7 -53 21 -30
24 -67 41 -127 57 -88 23 -111 34 -111 57 0 7 22 58 49 111 27 54 54 116 61
138 27 86 126 327 190 462 l68 142 -36 38 c-21 21 -59 64 -85 96 -57 67 -69
74 -303 167 -201 80 -302 124 -355 156 -19 12 -44 24 -55 27 -14 3 -12 5 9 6
15 0 27 4 27 9 0 4 5 45 10 92 5 47 14 169 19 272 11 215 18 237 99 334 95
115 297 216 617 309 239 70 342 105 355 120 22 27 -66 268 -184 503 -143 285
-363 637 -529 847 -179 227 -243 303 -294 346 -28 24 -52 50 -52 57 -1 16 37
72 48 72 4 0 59 -53 122 -117z m-2820 81 l26 -25 -124 -127 c-198 -203 -481
-613 -679 -983 -114 -214 -294 -622 -294 -666 0 -13 17 -19 333 -107 408 -115
605 -222 713 -385 28 -44 29 -47 26 -165 -2 -113 7 -231 44 -586 14 -139 46
-602 41 -605 -19 -13 -245 -111 -392 -170 -194 -79 -263 -112 -303 -148 -14
-13 -26 -17 -31 -11 -5 5 -39 81 -74 169 -36 88 -84 205 -107 260 -117 277
-129 310 -117 321 7 7 57 35 112 64 129 68 466 269 682 407 64 40 86 71 77
107 -3 14 -11 26 -18 26 -6 0 -105 -57 -221 -126 -282 -170 -399 -239 -595
-352 -91 -52 -169 -98 -173 -102 -5 -4 8 -45 28 -91 20 -46 63 -150 96 -231
32 -81 100 -241 150 -355 81 -184 91 -214 90 -263 -1 -82 -12 -160 -22 -160
-12 0 -34 37 -57 95 -11 28 -52 116 -90 196 -39 80 -119 258 -178 395 -106
247 -204 477 -204 480 0 1 14 7 31 13 66 23 443 237 854 484 82 50 179 104
215 120 36 16 68 34 71 40 25 39 -85 157 -229 245 -129 80 -138 83 -732 272
-91 29 -174 56 -186 60 -20 8 -20 11 21 93 22 46 72 156 109 243 108 253 360
720 484 899 226 325 280 394 427 542 82 84 154 153 159 153 6 0 22 -12 37 -26z
m-41 -270 c0 -3 -21 -35 -46 -70 -44 -61 -81 -141 -70 -151 2 -3 10 6 17 19
28 52 145 188 163 188 5 0 -2 -12 -16 -27 -38 -42 -107 -139 -142 -202 -18
-31 -40 -69 -50 -86 -12 -19 0 -11 33 24 28 30 51 49 51 41 0 -7 -13 -55 -30
-107 -16 -51 -30 -99 -30 -105 0 -21 19 5 34 47 9 25 15 32 16 20 0 -12 16 9
39 52 21 40 44 80 51 88 22 26 22 9 1 -31 -12 -21 -21 -43 -21 -48 0 -5 -18
-49 -41 -98 -22 -48 -39 -94 -36 -101 2 -6 30 27 61 76 57 86 76 108 76 88 0
-5 -4 -12 -9 -15 -4 -3 -20 -40 -36 -83 -15 -43 -38 -97 -51 -120 -14 -24 -23
-43 -20 -43 3 0 25 25 50 55 24 30 46 49 48 43 3 -7 20 13 38 44 19 32 36 55
38 53 4 -4 -24 -58 -75 -145 -31 -54 -77 -160 -68 -160 2 0 22 31 45 68 22 38
54 84 70 102 16 18 36 43 44 54 14 21 14 20 9 -4 -3 -14 -11 -32 -18 -40 -18
-22 -98 -227 -93 -241 3 -9 55 70 146 222 12 19 31 44 43 55 l22 19 -8 -25
c-4 -14 -20 -48 -36 -76 -16 -28 -26 -53 -23 -56 3 -3 -9 -64 -26 -134 -17
-71 -50 -219 -72 -329 -40 -197 -41 -204 -47 -474 l-6 -275 -27 36 c-83 109
-353 230 -797 359 -46 13 -86 30 -88 37 -12 30 188 464 305 662 214 361 382
604 516 748 44 47 66 62 66 46z m2823 -111 c59 -58 77 -72 72 -53 -9 30 -3 25
60 -59 193 -259 304 -438 478 -771 84 -162 201 -436 193 -455 -2 -7 -20 -16
-38 -20 -58 -13 -386 -124 -476 -161 -177 -73 -293 -140 -360 -206 l-64 -63 7
65 c14 137 10 461 -8 550 -9 47 -27 148 -41 225 -38 214 -85 366 -159 514 -18
36 -34 69 -36 75 -14 40 192 -204 226 -267 16 -30 18 -30 21 -10 4 27 -43 123
-101 205 -119 170 -156 236 -74 136 24 -29 60 -71 81 -93 20 -22 60 -75 88
-118 28 -42 53 -76 54 -74 6 6 -28 93 -57 147 -16 30 -56 91 -89 135 -117 158
-41 98 93 -72 44 -57 83 -103 88 -103 22 0 -91 209 -160 294 -17 21 -31 44
-31 49 0 19 79 -65 151 -160 39 -51 72 -93 74 -93 5 0 -29 90 -47 124 -6 12
-37 60 -69 108 -33 48 -59 90 -59 93 0 13 93 -81 147 -148 30 -38 57 -66 60
-64 7 8 -56 127 -111 207 -28 41 -55 81 -60 90 -18 32 117 -108 156 -162 23
-32 44 -56 45 -54 8 8 -48 119 -96 190 -29 42 -48 76 -44 76 4 0 43 -35 86
-77z m-2825 -110 c-14 -21 -31 -47 -37 -58 -9 -18 -10 -18 -11 -2 0 23 16 55
43 84 31 34 34 19 5 -24z m746 -563 c56 -85 109 -166 116 -180 l13 -24 -29 19
c-115 74 -255 217 -323 329 -28 46 -35 70 -39 129 l-5 72 82 -95 c45 -52 128
-165 185 -250z m1481 176 c-33 -69 -133 -195 -216 -269 -57 -52 -79 -66 -79
-52 0 3 20 45 44 93 56 111 124 211 206 302 l65 72 3 -45 c2 -33 -4 -61 -23
-101z m127 -133 c-12 -267 -90 -823 -142 -1015 -11 -40 -26 -111 -34 -158 -20
-118 -34 -176 -51 -216 -14 -35 -14 -35 -44 -20 -16 9 -45 41 -63 71 -201 338
-275 440 -439 609 -65 66 -117 121 -116 121 1 1 76 38 167 82 331 162 578 363
694 566 15 26 28 47 30 47 1 0 1 -39 -2 -87z m-1889 -40 c60 -82 238 -247 335
-312 51 -34 177 -106 280 -158 103 -53 189 -98 191 -100 3 -2 -23 -32 -56 -66
-66 -67 -262 -310 -317 -392 -18 -27 -70 -108 -116 -180 -46 -71 -91 -138
-101 -148 -16 -18 -17 -18 -39 5 -40 42 -58 99 -114 373 -66 324 -101 569
-121 845 -19 266 -19 265 4 218 11 -21 35 -59 54 -85z m2025 -268 c0 -22 -3
-31 -5 -21 -4 15 -7 16 -14 5 -11 -17 -12 38 -2 96 l7 40 7 -40 c5 -22 8 -58
7 -80z m-2238 -220 c0 -5 -5 -3 -10 5 -5 8 -10 20 -10 25 0 6 5 3 10 -5 5 -8
10 -19 10 -25z m2206 -51 c8 3 12 2 9 -3 -6 -11 -45 -10 -45 0 0 4 3 22 8 40
l7 34 3 -38 c3 -29 7 -37 18 -33z m-3676 -29 c0 -3 -27 -63 -60 -132 l-59
-127 -78 -27 c-80 -27 -462 -179 -611 -243 -46 -20 -92 -36 -101 -36 -10 0
-27 17 -39 39 -13 22 -41 64 -62 93 -38 49 -39 54 -23 67 37 28 301 134 593
238 143 51 151 54 280 83 52 12 106 28 120 36 27 14 40 17 40 9z m5314 -26
c280 -86 916 -332 916 -354 0 -6 -11 -22 -25 -35 -14 -13 -38 -47 -55 -76 -16
-29 -34 -55 -40 -59 -13 -8 -92 22 -195 73 -61 30 -169 69 -520 185 -49 16
-95 34 -102 41 -11 10 -93 229 -93 248 0 12 3 11 114 -23z m-1644 5 c0 -2 -7
-4 -15 -4 -8 0 -15 4 -15 10 0 5 7 7 15 4 8 -4 15 -8 15 -10z m-2273 -16 c-3
-8 -6 -5 -6 6 -1 11 2 17 5 13 3 -3 4 -12 1 -19z m2326 -25 c-7 -2 -19 -2 -25
0 -7 3 -2 5 12 5 14 0 19 -2 13 -5z m-1059 -100 c99 -105 127 -135 155 -169
13 -16 30 -36 38 -45 12 -14 9 -27 -23 -95 -21 -44 -55 -103 -77 -131 l-39
-53 -118 0 c-65 0 -126 3 -135 6 -19 8 -100 126 -139 203 l-28 54 40 36 c22
20 56 56 74 81 31 42 168 190 176 190 2 0 36 -35 76 -77z m-1269 47 c3 -5 1
-10 -4 -10 -6 0 -11 5 -11 10 0 6 2 10 4 10 3 0 8 -4 11 -10z m-8 -72 c-2 -13
-4 -5 -4 17 -1 22 1 32 4 23 2 -10 2 -28 0 -40z m0 -176 c2 -34 0 -42 -7 -27
-11 25 -13 75 -2 75 4 0 8 -21 9 -48z m2383 28 c0 -5 -5 -10 -11 -10 -5 0 -7
5 -4 10 3 6 8 10 11 10 2 0 4 -4 4 -10z m-13 -42 c-3 -8 -6 -5 -6 6 -1 11 2
17 5 13 3 -3 4 -12 1 -19z m1588 -43 c129 -32 434 -142 616 -221 81 -35 158
-64 172 -64 18 0 31 9 44 30 9 17 21 30 26 30 15 0 73 -139 125 -300 62 -189
246 -791 302 -990 23 -80 65 -219 92 -310 28 -91 59 -196 70 -234 10 -38 23
-76 28 -85 4 -9 16 -46 25 -81 19 -75 52 -185 142 -470 91 -290 85 -268 69
-248 -7 10 -17 14 -21 10 -5 -4 -5 -1 -1 6 4 7 1 12 -9 12 -9 0 -13 5 -10 10
5 8 -22 15 -47 11 -4 0 -5 5 -2 13 3 8 0 17 -7 22 -8 4 -10 3 -5 -4 4 -7 3
-12 -2 -12 -6 0 -13 11 -16 25 -4 14 -13 25 -21 25 -8 0 -15 4 -15 9 0 6 -9 8
-19 6 -11 -2 -22 3 -25 12 -5 12 -1 14 19 9 17 -4 25 -2 25 6 0 22 -16 39 -38
41 -20 1 -20 1 -2 27 25 35 49 54 57 46 3 -3 -7 -17 -23 -31 -17 -15 -21 -23
-11 -19 12 4 17 2 15 -6 -2 -7 3 -15 11 -18 9 -3 11 0 7 9 -4 8 -1 6 7 -3 8
-10 22 -18 32 -18 13 0 10 7 -15 29 -19 16 -28 31 -22 35 5 3 12 -1 16 -9 3
-8 11 -12 19 -9 19 7 10 54 -10 54 -13 0 -13 -3 -3 -15 7 -9 10 -18 7 -21 -3
-3 -10 3 -16 15 -9 16 -8 22 6 30 10 6 13 11 7 11 -6 0 -10 10 -10 23 1 12 -3
21 -9 20 -5 0 -16 5 -23 13 -10 11 -10 14 2 14 9 0 12 7 9 20 -6 23 -33 27
-33 5 0 -8 -4 -15 -10 -15 -5 0 -7 -6 -4 -14 3 -7 -2 -21 -11 -30 -9 -9 -13
-21 -9 -27 4 -8 12 -2 21 15 14 27 37 28 27 1 -4 -8 -11 -12 -17 -8 -6 4 -8 0
-4 -10 10 -27 -14 -32 -34 -6 -17 22 -17 25 -2 36 9 7 13 16 8 20 -4 5 -10 2
-12 -5 -3 -6 -11 -12 -19 -12 -12 0 -11 -5 2 -26 15 -22 15 -27 3 -35 -12 -7
-12 -9 1 -10 27 -2 45 3 61 17 9 8 19 11 22 8 9 -9 -33 -45 -44 -38 -5 3 -6
-2 -3 -10 9 -24 -37 -38 -54 -17 -12 14 -13 14 -8 -4 2 -11 7 -35 11 -53 4
-18 11 -30 16 -26 5 3 7 10 4 15 -4 5 1 9 10 9 9 0 13 -5 9 -11 -8 -14 16 -60
28 -53 4 3 14 2 21 -3 6 -4 16 -8 22 -8 5 0 11 -8 13 -18 3 -16 -1 -18 -20
-12 -20 5 -20 4 -5 -5 9 -6 21 -9 26 -5 5 3 12 1 15 -4 4 -5 2 -12 -4 -16 -5
-3 -10 -11 -10 -17 0 -7 6 -6 15 2 12 10 15 10 15 0 0 -7 7 -10 16 -6 14 5 15
4 4 -9 -10 -12 -10 -19 -2 -27 7 -7 12 -20 12 -30 0 -13 8 -18 28 -18 19 0 23
-3 13 -9 -7 -5 -10 -14 -6 -20 4 -7 2 -18 -4 -25 -9 -10 -6 -13 14 -11 14 2
23 -1 19 -6 -3 -5 6 -9 19 -9 21 0 24 4 19 22 -5 21 -6 21 -13 2 -7 -18 -8
-18 -8 0 -1 12 -6 16 -16 12 -8 -3 -15 -1 -15 5 0 5 10 14 23 18 18 7 24 4 34
-18 15 -32 17 -81 3 -81 -6 0 -13 7 -16 15 -4 8 -10 15 -16 15 -5 0 -6 -4 -3
-10 3 -6 -1 -7 -9 -4 -9 3 -16 10 -16 15 0 5 -5 9 -11 9 -5 0 -8 -4 -5 -9 4
-5 3 -11 -1 -14 -5 -2 -3 -2 4 -1 14 3 28 -29 14 -34 -6 -2 3 -16 19 -32 17
-16 30 -34 30 -41 0 -6 7 -9 15 -5 8 3 14 2 12 -2 -1 -4 3 -9 8 -11 16 -8 41
-34 53 -57 15 -29 40 -166 47 -259 6 -93 -5 -86 -31 17 -9 39 -32 93 -53 126
-41 62 -191 210 -268 263 -148 102 -186 125 -263 164 -47 23 -119 54 -160 68
-167 58 -426 107 -565 107 -25 0 -45 4 -45 9 0 25 136 58 420 104 132 21 135
23 135 47 0 19 -9 29 -38 44 -31 15 -60 18 -157 17 -157 -1 -270 -26 -518
-116 -71 -25 -123 -27 -137 -5 -3 5 11 30 30 57 229 314 341 482 460 688 102
178 132 264 98 283 -24 14 -61 -26 -196 -212 -56 -78 -134 -175 -175 -218 -92
-96 -222 -184 -222 -150 0 5 13 49 29 98 17 49 46 150 65 224 69 268 137 522
172 642 68 233 104 373 98 391 -3 9 -15 22 -27 28 -38 21 -68 -30 -130 -217
-31 -93 -66 -207 -77 -254 -12 -47 -34 -126 -50 -176 -16 -50 -50 -166 -75
-257 -54 -198 -160 -523 -181 -555 -8 -12 -19 -20 -25 -16 -6 3 -9 -2 -7 -11
2 -10 -3 -20 -9 -22 -7 -3 -13 1 -13 7 0 9 -5 9 -17 -1 -9 -8 -14 -9 -12 -4 3
6 -2 18 -12 27 -18 17 -22 14 -90 -67 -105 -126 -100 -123 -249 -118 -109 5
-132 3 -185 -16 -32 -11 -63 -21 -68 -21 -5 0 -7 24 -4 53 6 69 99 246 128
244 10 -1 19 -4 19 -8 0 -4 7 -10 16 -13 11 -4 15 -2 11 8 -3 8 3 22 14 32 17
16 19 16 19 1 0 -10 -8 -17 -17 -17 -14 0 -15 -2 -5 -9 12 -7 11 -14 -2 -39
-19 -37 -20 -42 -5 -42 7 0 17 -7 23 -15 9 -13 11 -10 12 17 1 18 -1 27 -3 21
-3 -7 -11 -13 -19 -13 -8 0 -11 6 -8 15 10 24 43 18 50 -9 3 -14 13 -27 22
-31 9 -3 13 -3 9 1 -4 4 -2 13 5 21 8 11 7 12 -5 7 -10 -3 -20 3 -28 18 -6 13
-17 26 -23 30 -7 5 -7 8 3 8 7 0 11 6 8 14 -4 10 0 12 14 9 21 -6 36 -23 20
-23 -6 0 -11 -8 -11 -17 0 -14 3 -13 16 5 9 13 13 26 10 29 -3 3 0 13 7 21 10
13 9 15 -7 9 -27 -10 -56 1 -49 19 4 10 9 12 18 4 14 -11 43 15 31 27 -4 4
-11 1 -16 -7 -5 -8 -12 -11 -15 -8 -11 11 5 28 25 28 24 0 35 -17 21 -34 -9
-10 -8 -15 3 -19 9 -4 16 3 20 16 3 12 1 24 -4 25 -6 2 -7 8 -4 13 3 6 12 5
22 -3 14 -10 15 -10 5 2 -17 19 -16 31 2 24 8 -4 15 -1 15 5 0 6 -7 11 -15 11
-8 0 -15 5 -15 10 0 6 -5 10 -12 10 -9 0 -9 -3 0 -12 7 -7 8 -17 1 -30 -9 -17
-11 -17 -36 0 -15 9 -24 11 -20 5 5 -7 4 -13 -2 -13 -6 0 -11 6 -11 13 0 9 -2
9 -8 0 -5 -8 -13 -9 -22 -3 -8 6 -10 10 -5 10 6 0 3 5 -5 10 -13 9 -13 12 0
23 8 6 15 21 15 32 0 11 5 19 12 18 7 -2 10 3 7 10 -2 7 10 42 27 77 17 36 39
85 49 110 10 25 38 86 63 135 24 50 67 146 95 215 69 172 155 359 186 409 30
47 32 64 11 81 -21 18 -571 307 -757 398 -87 42 -158 80 -158 84 0 4 16 14 36
23 23 9 33 19 28 26 -5 9 -2 10 9 6 11 -4 17 -1 17 8 0 18 16 20 24 3 3 -7 4
0 1 16 -4 17 0 37 9 51 14 22 12 35 -6 35 -5 0 -6 -4 -3 -10 3 -5 1 -10 -4
-10 -18 0 -12 29 8 40 14 7 21 6 24 -3 3 -7 6 -5 6 5 1 14 7 16 33 11 26 -5
30 -4 25 10 -5 14 -3 15 13 5 14 -9 16 -15 8 -26 -8 -9 -8 -16 1 -25 10 -9 11
-8 6 5 -4 11 0 18 14 23 12 3 21 10 21 15 0 4 8 7 18 6 13 -1 17 7 16 34 0 30
4 38 34 53 27 15 32 21 21 28 -12 7 -12 10 0 21 9 8 11 9 7 1 -11 -19 13 -25
36 -9 20 15 15 21 -14 17 -3 0 -5 7 -3 17 2 9 4 20 4 25 1 4 6 7 12 7 8 0 8
-5 -1 -15 -9 -11 -10 -15 -1 -15 7 0 19 7 27 15 12 12 12 15 2 15 -11 0 -11 2
0 9 8 4 13 11 13 15 -1 3 0 5 2 4 2 -2 11 5 21 15 10 9 27 17 40 17 12 0 27 5
33 11 13 13 63 19 63 8 0 -5 7 -9 15 -9 8 0 12 6 9 14 -3 8 0 17 6 21 6 4 9 1
8 -7 -2 -7 5 -12 15 -12 9 1 17 -3 17 -9 0 -11 29 23 30 35 0 3 -10 4 -22 1
-13 -3 -20 -3 -17 1 7 7 138 54 155 55 6 1 55 -10 109 -24z m-5327 -4 c13 -8
11 -10 -13 -8 -25 2 -30 -2 -32 -23 -1 -14 0 -19 3 -12 8 17 35 15 28 -2 -3
-8 0 -17 7 -22 7 -4 10 -3 6 3 -4 6 0 16 8 23 12 10 15 10 16 -1 0 -10 2 -11
6 -1 7 19 20 14 26 -9 4 -16 10 -20 24 -14 22 9 111 13 121 5 12 -9 11 -39 -2
-37 -6 1 -11 -7 -11 -18 0 -11 6 -19 13 -17 8 1 11 -6 8 -23 -3 -14 0 -25 6
-25 5 0 8 7 4 15 -3 10 3 17 19 21 30 7 59 -2 50 -16 -3 -5 4 -11 17 -11 17
-1 18 -3 6 -6 -10 -2 -18 -8 -18 -13 0 -6 9 -6 23 -1 12 5 21 14 19 21 -1 6 9
3 22 -7 13 -10 20 -19 15 -21 -5 -2 -9 -11 -9 -20 1 -14 5 -12 21 7 16 19 22
22 32 12 9 -10 9 -12 -2 -9 -7 2 -16 -3 -18 -11 -4 -10 1 -11 18 -7 23 7 23 7
5 -8 -18 -15 -18 -16 -2 -16 9 0 15 -4 12 -9 -3 -4 7 -7 23 -5 17 2 36 -4 48
-16 12 -10 23 -16 26 -14 3 3 16 -1 29 -9 12 -8 34 -18 48 -22 26 -8 141 -96
175 -134 l19 -22 -26 3 c-14 2 -33 9 -41 16 -12 10 -16 10 -20 0 -5 -10 -9
-10 -19 2 -7 8 -22 17 -33 18 -11 2 -23 8 -26 14 -3 5 -10 10 -15 10 -20 1
-34 11 -34 24 0 8 -3 14 -7 15 -5 0 -18 2 -29 5 -15 2 -23 -2 -27 -16 -4 -17
-3 -18 16 -8 20 10 21 10 7 -7 -14 -16 -13 -17 8 -11 18 6 21 4 15 -10 -5 -14
-2 -16 15 -12 12 4 20 3 17 -2 -5 -8 70 -43 118 -55 15 -4 29 -11 32 -15 10
-16 -163 -123 -498 -307 -346 -191 -412 -230 -410 -244 4 -25 199 -501 288
-699 75 -170 125 -288 125 -298 0 -2 -3 -1 -7 1 -5 3 -8 -6 -8 -19 0 -13 6
-24 13 -24 6 0 12 -4 12 -10 0 -10 -15 -14 -35 -10 -5 1 -5 -4 2 -11 6 -6 9
-19 6 -28 -4 -9 3 -6 15 8 12 13 22 30 22 38 0 8 5 11 10 8 8 -5 8 -11 1 -19
-6 -7 -8 -16 -5 -19 4 -3 -1 -13 -10 -22 -9 -9 -16 -24 -16 -33 0 -14 2 -15 9
-3 7 12 13 12 24 3 7 -7 18 -8 22 -4 5 4 5 2 1 -5 -4 -7 -12 -10 -19 -7 -7 2
-18 -6 -26 -18 -13 -21 -13 -22 2 -9 19 15 23 1 5 -17 -6 -6 -9 -15 -5 -18 3
-4 12 6 19 20 9 22 16 26 36 21 17 -4 22 -2 16 6 -4 8 -3 9 4 5 21 -13 13 -26
-15 -26 -25 -1 -26 -2 -11 -14 10 -7 14 -17 10 -21 -4 -5 -1 -5 6 -1 7 4 10
12 7 17 -4 5 -1 9 4 9 6 0 11 -6 11 -12 0 -9 4 -8 10 2 5 8 10 10 10 4 0 -6
-10 -18 -22 -27 l-23 -15 26 5 c23 4 31 -2 56 -39 53 -77 63 -103 57 -150 l-6
-43 -167 0 c-132 0 -170 3 -186 15 -11 8 -55 59 -98 113 -44 53 -83 97 -87 97
-5 0 -2 -20 8 -45 20 -54 11 -67 -25 -34 -30 28 -30 26 11 -83 21 -55 23 -66
9 -61 -11 4 -14 2 -11 -8 3 -8 13 -13 22 -12 10 0 15 -1 12 -5 -3 -3 2 -11 12
-18 14 -10 15 -15 4 -26 -11 -11 -16 -10 -29 7 -82 106 -267 657 -463 1381
-45 165 -108 334 -127 341 -25 10 -63 -25 -63 -59 0 -37 50 -236 130 -518 32
-113 81 -294 109 -402 28 -108 65 -240 82 -293 17 -53 28 -99 25 -102 -7 -8
-97 52 -161 106 -91 77 -136 125 -228 245 -131 170 -146 186 -172 186 -13 0
-26 -4 -30 -10 -12 -19 58 -171 149 -323 97 -161 202 -319 358 -536 49 -68 88
-124 86 -126 -2 -1 -17 -5 -34 -8 -23 -4 -75 9 -190 47 -192 65 -271 79 -434
80 -95 0 -134 -4 -162 -17 -77 -33 -41 -61 109 -83 123 -18 311 -57 367 -76
50 -17 47 -32 -6 -35 -108 -6 -491 -87 -588 -125 -205 -80 -467 -250 -587
-381 -56 -62 -117 -163 -154 -256 -23 -56 -27 -62 -34 -42 -16 52 27 234 129
541 36 107 83 256 104 330 22 74 70 234 106 355 37 121 85 281 107 355 60 199
161 527 236 760 35 113 80 252 98 310 105 330 184 564 234 694 l12 29 34 -33
c28 -27 38 -31 62 -25 41 10 242 86 441 166 286 116 458 155 520 120z m1369
-33 c-3 -8 -6 -5 -6 6 -1 11 2 17 5 13 3 -3 4 -12 1 -19z m-1099 -83 c1 -1
-11 -2 -27 -2 -20 0 -28 4 -24 13 4 11 10 11 26 2 12 -6 23 -12 25 -13z m2721
-48 c24 -40 73 -121 108 -182 77 -132 100 -155 154 -155 34 0 39 -3 35 -17 -3
-10 -8 -31 -12 -48 -4 -16 -13 -42 -21 -58 l-14 -27 -171 2 -172 3 -32 140
c-18 77 -39 156 -48 176 -15 37 -15 37 20 73 19 20 49 65 66 101 16 36 33 65
36 65 4 -1 27 -33 51 -73z m-1622 31 c-3 -7 -5 -2 -5 12 0 14 2 19 5 13 2 -7
2 -19 0 -25z m851 -14 c12 -25 42 -66 66 -92 l44 -47 -34 -150 c-51 -227 -43
-210 -92 -210 -23 1 -109 2 -191 3 l-148 2 -12 61 c-7 34 -15 67 -18 74 -4 11
2 12 31 3 30 -9 39 -9 55 6 10 9 74 102 142 206 68 104 126 189 130 189 3 1
15 -20 27 -45z m1417 -14 c3 -6 -1 -7 -9 -4 -18 7 -21 14 -7 14 6 0 13 -4 16
-10z m65 -15 c0 -2 -6 -5 -13 -8 -8 -3 -14 1 -14 8 0 7 6 11 14 8 7 -3 13 -6
13 -8z m-2050 -99 c0 -26 -6 -18 -14 19 -5 22 -4 26 4 15 5 -8 10 -24 10 -34z
m2000 5 c0 -6 -4 -12 -8 -15 -5 -3 -9 1 -9 9 0 8 4 15 9 15 4 0 8 -4 8 -9z
m1038 -26 c-3 -3 -9 2 -12 12 -6 14 -5 15 5 6 7 -7 10 -15 7 -18z m-3058 12
c0 -2 -11 -18 -24 -36 -21 -28 -25 -30 -23 -12 1 11 7 21 14 21 7 0 13 7 13
15 0 8 5 15 10 15 6 0 10 -1 10 -3z m2117 -22 c0 -8 -4 -12 -9 -9 -5 3 -6 10
-3 15 9 13 12 11 12 -6z m-2356 -68 c1 -50 6 -70 18 -77 14 -8 14 -9 -1 -10
-10 0 -18 -10 -21 -27 -2 -16 -5 21 -6 81 0 60 1 107 4 105 2 -3 5 -35 6 -72z
m271 1 c-5 -5 -20 -3 -36 5 -20 11 -23 16 -12 20 8 3 17 -1 20 -9 11 -28 25
-13 20 24 l-4 37 11 -34 c6 -20 7 -37 1 -43z m2088 22 c0 -17 -32 -19 -48 -4
-15 15 -14 16 7 9 16 -5 21 -4 17 4 -5 7 -1 9 8 5 9 -3 16 -10 16 -14z m-1046
-27 c2 -10 7 -38 11 -63 6 -40 27 -136 41 -182 4 -15 -13 -16 -191 -16 -107 0
-195 1 -195 3 0 1 16 63 35 136 19 74 34 135 35 137 0 1 58 2 129 2 115 0 130
-2 135 -17z m1039 -160 c-7 -200 -11 -219 -43 -215 -13 1 -31 9 -39 16 -18 16
-177 71 -234 82 -36 6 -38 8 -31 38 3 17 11 40 17 51 6 11 10 26 9 33 -2 6 2
12 8 12 5 0 10 -6 10 -14 0 -16 37 -46 57 -46 7 0 10 6 7 14 -3 8 0 17 7 22 7
4 10 3 5 -4 -3 -6 3 -13 14 -17 11 -4 18 -10 15 -15 -3 -4 4 -6 15 -3 14 4 22
-1 29 -18 l10 -24 0 23 c1 27 9 28 27 5 10 -13 13 -14 9 -3 -4 11 1 16 15 16
11 0 20 -4 20 -8 0 -4 5 -8 10 -8 6 0 9 3 9 8 -3 18 2 31 14 35 6 2 -1 2 -18
1 -16 -2 -24 -1 -17 2 6 3 10 10 6 15 -3 5 -2 14 2 21 5 8 11 6 19 -6 11 -14
13 -15 19 -1 3 9 0 15 -9 15 -21 0 -19 36 2 45 16 6 15 8 -7 27 -16 12 -19 18
-8 14 25 -8 34 15 12 27 -18 10 -17 11 6 18 14 4 28 7 32 8 4 1 4 -74 1 -166z
m-2069 109 c3 -5 -1 -9 -9 -9 -8 0 -15 4 -15 9 0 4 4 8 9 8 6 0 12 -4 15 -8z
m2730 -18 c3 -8 2 -12 -4 -9 -18 11 -32 -5 -19 -21 13 -16 1 -18 -21 -4 -13 9
-12 13 9 30 28 24 27 24 35 4z m-734 -34 c0 -5 -2 -10 -4 -10 -3 0 -8 5 -11
10 -3 6 -1 10 4 10 6 0 11 -4 11 -10z m-1973 -32 c-3 -8 -6 -5 -6 6 -1 11 2
17 5 13 3 -3 4 -12 1 -19z m1773 -30 c0 -19 -16 -5 -17 14 -2 18 0 20 7 8 5
-8 10 -18 10 -22z m90 28 c0 -3 -4 -8 -10 -11 -5 -3 -10 -1 -10 4 0 6 5 11 10
11 6 0 10 -2 10 -4z m-1863 -40 c0 -8 -6 -12 -15 -9 -11 5 -11 7 0 14 7 5 13
9 14 9 0 0 1 -6 1 -14z m10 -59 c-1 -12 -7 -33 -14 -47 l-13 -25 0 28 c0 19
-4 26 -12 21 -7 -4 -8 -3 -4 5 4 6 12 9 17 6 5 -4 9 6 9 20 0 14 4 24 9 20 6
-3 9 -15 8 -28z m-284 -107 c1 -22 4 -40 7 -40 15 0 18 13 10 41 -6 20 -5 27
2 23 6 -4 14 0 19 7 6 10 9 10 9 2 0 -7 7 -10 18 -6 9 3 14 3 10 -1 -3 -4 -14
-9 -25 -10 -20 -3 -32 -36 -13 -36 9 0 9 -4 2 -12 -5 -7 -13 -24 -16 -38 -6
-21 -5 -22 4 -7 6 9 15 15 20 12 5 -3 20 0 32 7 33 17 46 18 59 2 9 -11 7 -14
-10 -14 -11 0 -21 5 -21 10 0 6 -8 5 -20 -2 -11 -7 -20 -19 -20 -26 0 -7 -4
-10 -10 -7 -5 3 -10 2 -10 -2 0 -5 9 -14 20 -21 12 -7 19 -16 16 -20 -3 -5 -1
-14 5 -22 7 -12 9 -12 9 4 0 14 5 17 21 13 12 -3 22 0 26 9 3 8 9 14 15 14 5
0 6 -5 2 -12 -5 -8 0 -9 14 -6 12 4 20 3 18 -1 -3 -4 4 -8 15 -8 10 -1 19 2
19 8 0 5 -3 8 -7 8 -5 -1 -23 4 -40 12 -35 14 -46 34 -13 24 10 -3 29 -1 41 5
17 9 20 18 15 41 -3 17 -1 29 5 29 5 0 14 10 19 23 6 14 9 -43 9 -166 1 -144
-2 -186 -11 -185 -7 2 -16 8 -20 13 -5 7 -10 7 -15 0 -5 -5 -15 -11 -23 -13
-12 -3 -12 -1 -3 9 7 7 22 13 35 14 29 2 36 23 7 21 -12 0 -24 5 -26 12 -3 6
2 12 11 12 9 0 16 4 16 10 0 11 -32 1 -41 -13 -8 -12 -50 33 -42 46 3 5 0 8
-8 5 -21 -7 -24 -38 -3 -38 14 0 15 -3 7 -11 -12 -12 -47 1 -103 38 -15 10
-11 3 10 -16 32 -30 34 -33 18 -45 -10 -7 -18 -17 -18 -21 0 -5 -7 -17 -17
-27 -14 -16 -15 -18 0 -18 22 0 30 -17 17 -37 -10 -17 -10 -17 -8 1 2 10 -3
21 -11 24 -11 3 -12 -3 -8 -29 4 -19 3 -40 -1 -46 -9 -15 -40 256 -48 427 -6
109 -5 114 10 93 10 -13 18 -41 19 -63z m82 0 c3 -5 1 -10 -4 -10 -6 0 -11 5
-11 10 0 6 2 10 4 10 3 0 8 -4 11 -10z m148 -7 c-7 -2 -19 -2 -25 0 -7 3 -2 5
12 5 14 0 19 -2 13 -5z m-143 -23 c0 -5 -4 -10 -10 -10 -5 0 -10 5 -10 10 0 6
5 10 10 10 6 0 10 -4 10 -10z m122 -27 c-6 -3 -9 -10 -5 -16 4 -7 0 -6 -10 1
-13 11 -14 17 -4 27 8 9 15 10 22 3 7 -7 6 -12 -3 -15z m1393 -232 c4 -135 5
-430 1 -655 l-7 -409 -23 -18 c-13 -10 -33 -41 -45 -69 -12 -27 -23 -50 -25
-50 -2 0 -3 258 -2 572 l1 573 -54 11 c-84 19 -151 95 -151 174 l0 30 -305 0
-305 0 0 -40 c0 -23 -7 -54 -14 -69 -23 -43 -81 -89 -123 -97 -63 -11 -63 -11
-63 -183 0 -86 -3 -200 -7 -253 l-6 -98 -44 0 -43 0 0 409 0 410 43 4 c23 2
295 4 603 4 l562 1 7 -247z m470 204 c55 -18 109 -35 120 -38 46 -12 -106 6
-169 19 -86 19 -139 40 -131 54 9 14 59 4 180 -35z m-314 -197 c2 -123 2 -403
-1 -623 l-5 -400 -33 -3 -32 -3 5 108 c4 59 7 335 8 613 1 278 6 511 10 518 5
6 16 12 26 12 17 0 19 -15 22 -222z m-1641 187 c-9 -10 -9 -15 -1 -15 6 0 11
-4 11 -10 0 -5 -6 -7 -14 -4 -19 7 -16 44 2 44 12 0 12 -3 2 -15z m2170 -45
c20 -6 21 -8 5 -8 -11 0 -33 4 -50 8 -27 7 -27 8 -5 8 14 0 36 -4 50 -8z
m-196 -101 c66 -17 144 -33 175 -38 42 -5 55 -11 52 -21 -12 -46 -53 -311 -66
-424 -34 -286 -82 -570 -104 -605 -7 -11 -13 -11 -37 1 -33 16 -34 23 -9 188
8 52 21 154 30 225 17 137 43 347 47 379 2 15 -5 21 -27 26 -16 4 -40 12 -53
19 -33 18 -80 96 -88 147 -6 43 -7 44 -43 44 -71 0 -81 8 -81 57 l0 45 43 -7
c23 -4 96 -20 161 -36z m-878 -16 c9 -48 108 -150 154 -159 l31 -7 -2 -261
c-1 -143 -4 -269 -6 -280 -4 -16 -11 -13 -47 22 -86 84 -177 122 -321 137 -88
8 -183 -12 -271 -58 -53 -29 -64 -32 -80 -20 -10 7 -33 13 -51 13 l-33 0 0
219 0 219 29 5 c42 9 139 103 156 152 l13 40 184 5 c100 3 195 7 210 8 24 2
28 -2 34 -35z m-1033 -49 c4 -1 10 -2 15 -3 4 -1 0 -5 -8 -11 -9 -5 -19 -5
-26 1 -8 7 -14 6 -19 -1 -8 -13 -25 -13 -25 0 0 6 7 10 15 10 8 0 15 5 15 11
0 6 5 7 13 2 6 -4 15 -8 20 -9z m-81 -12 c6 -23 -17 -57 -31 -47 -16 9 -13 26
3 23 8 -2 14 2 13 7 -1 6 -5 9 -9 8 -10 -4 -10 11 -1 20 11 12 20 8 25 -11z
m2546 -96 c81 -35 176 -76 212 -91 36 -15 66 -28 68 -30 1 -1 -16 -47 -39
-101 -22 -54 -60 -148 -83 -209 -24 -60 -71 -171 -106 -245 -71 -154 -120
-274 -120 -295 0 -7 -4 -16 -9 -20 -11 -6 -93 34 -89 44 2 4 25 58 52 121 26
63 71 166 98 229 28 63 61 145 74 184 l24 71 -35 29 c-52 42 -69 82 -70 155
l0 63 -63 28 c-98 44 -116 60 -108 99 6 23 13 32 28 32 11 0 86 -29 166 -64z
m-2412 38 c-5 -14 -4 -15 9 -4 13 11 15 7 15 -28 0 -42 -22 -73 -36 -51 -4 7
-3 9 4 5 6 -3 13 -2 17 4 3 5 0 10 -7 10 -9 0 -10 2 -1 8 13 8 -2 35 -27 45
-12 4 -11 6 3 6 9 1 17 6 17 11 0 6 3 10 6 10 3 0 3 -7 0 -16z m-106 -14 c0
-5 9 -10 20 -10 11 0 20 -4 20 -9 0 -19 -15 -19 -38 -1 -24 20 -28 30 -12 30
6 0 10 -4 10 -10z m1816 -85 c21 -44 37 -61 73 -82 25 -15 48 -28 50 -30 2 -1
-1 -28 -7 -60 -6 -32 -21 -143 -32 -248 -28 -254 -23 -242 -87 -193 l-53 39 0
292 c0 365 5 390 56 282z m-1689 -42 c1 -45 0 -46 -7 -14 -7 28 -4 61 4 61 1
0 2 -21 3 -47z m-230 -25 c-3 -8 -6 -5 -6 6 -1 11 2 17 5 13 3 -3 4 -12 1 -19z
m2484 -83 c7 -59 27 -100 70 -150 29 -33 30 -37 17 -58 -21 -31 -177 -400
-194 -458 -16 -52 -27 -57 -83 -42 -21 5 -23 10 -17 47 4 23 10 61 13 86 5 35
8 40 14 25 5 -14 8 -6 8 27 1 68 22 171 67 323 12 44 28 109 34 145 18 110 19
112 43 108 18 -2 23 -11 28 -53z m-2461 -10 c4 3 6 -4 3 -15 -7 -27 11 -25 31
3 l17 22 -4 -22 c-3 -15 -1 -20 9 -16 8 3 14 0 14 -6 0 -6 -4 -11 -10 -11 -5
0 -7 -6 -4 -14 7 -18 44 -28 44 -13 0 7 11 -1 25 -16 28 -30 51 -36 41 -11 -3
8 -2 12 4 9 18 -11 32 5 19 21 -8 10 -8 14 0 14 6 0 11 5 11 11 0 5 -4 7 -10
4 -5 -3 -10 -1 -10 4 0 13 17 14 24 2 3 -5 9 -51 12 -103 l6 -95 -98 -6 c-55
-3 -102 -2 -107 2 -7 7 -38 231 -36 261 1 8 4 5 6 -8 2 -12 8 -20 13 -17z m34
27 c3 -5 -1 -9 -9 -9 -8 0 -12 4 -9 9 3 4 7 8 9 8 2 0 6 -4 9 -8z m2965 -41
c13 -23 -4 -67 -121 -316 -103 -218 -182 -390 -208 -451 -18 -42 -41 -56 -55
-34 -3 6 5 38 19 73 62 154 117 281 140 320 13 23 52 108 86 189 55 131 111
238 124 238 3 0 10 -8 15 -19z m-2879 -30 c0 -5 -11 -11 -25 -13 -24 -5 -32 2
-18 15 9 10 43 8 43 -2z m40 -25 c0 -3 -4 -8 -10 -11 -5 -3 -10 -1 -10 4 0 6
5 11 10 11 6 0 10 -2 10 -4z m963 -246 c78 -38 161 -121 198 -197 20 -40 24
-63 24 -138 0 -76 -4 -99 -27 -147 -73 -156 -289 -259 -461 -219 -21 5 -41 12
-44 15 -3 3 4 25 16 49 12 25 21 63 21 90 0 47 0 47 34 47 49 0 87 36 129 125
27 55 42 75 56 75 32 0 54 -29 47 -64 -3 -17 -9 -49 -12 -72 l-6 -41 41 -7
c52 -8 57 -5 65 41 15 88 17 91 47 102 32 11 31 31 -1 31 -10 0 -28 16 -41 36
-31 50 -57 73 -99 84 -83 22 -168 -33 -191 -125 -7 -26 -20 -50 -31 -56 -20
-11 -59 -3 -70 15 -12 17 -9 76 4 114 11 30 11 35 -7 48 -11 8 -28 13 -37 10
-15 -3 -18 2 -18 30 0 18 -7 54 -16 80 -10 29 -12 50 -6 56 5 5 43 20 83 34
108 35 209 30 302 -16z m-778 -112 c10 -61 38 -114 55 -103 3 2 4 43 2 90 l-5
86 99 -3 99 -3 28 -58 c33 -68 29 -92 -29 -151 -41 -42 -50 -43 -422 -50
l-263 -6 -202 -76 c-111 -41 -242 -92 -292 -113 -49 -21 -100 -42 -112 -45
-29 -9 -31 -56 -3 -81 24 -22 65 -15 153 24 34 15 150 61 257 102 l195 74 260
0 260 0 16 -75 c11 -53 20 -76 31 -78 15 -3 16 6 11 71 l-6 74 41 6 c46 8 158
-1 184 -15 10 -4 24 -31 32 -59 13 -43 13 -56 2 -83 -21 -50 -70 -86 -119 -87
-23 -1 -64 -3 -92 -4 -27 -2 -164 -6 -304 -9 -238 -6 -259 -8 -330 -32 -123
-43 -279 -103 -387 -150 -56 -24 -111 -44 -123 -44 -12 0 -21 -3 -21 -7 0 -19
41 -73 55 -73 9 0 87 26 173 59 332 124 448 151 664 151 54 0 59 -2 73 -30 8
-16 15 -47 15 -70 0 -25 5 -40 13 -40 8 0 12 19 12 62 l0 63 98 3 98 3 16 -38
c21 -52 23 -93 5 -123 -38 -62 -82 -77 -279 -96 -93 -8 -195 -22 -229 -29 -65
-15 -220 -79 -290 -120 -72 -43 -76 -53 -79 -238 -3 -190 -20 -274 -70 -356
-65 -107 -216 -229 -371 -301 -50 -23 -102 -40 -115 -38 -31 4 -42 29 -74 168
-36 153 -45 404 -21 555 35 216 56 389 70 576 15 192 46 380 71 429 7 14 24
35 38 48 30 28 242 126 472 218 l170 67 215 12 c118 7 222 12 229 11 10 -1 18
-23 26 -68z m1576 -213 c9 -21 15 -43 13 -47 -6 -9 -65 -11 -88 -2 -13 5 -16
22 -16 82 l0 76 36 -35 c20 -18 45 -52 55 -74z m-1215 9 c-4 -9 -9 -15 -11
-12 -3 3 -3 13 1 22 4 9 9 15 11 12 3 -3 3 -13 -1 -22z m-1911 -94 c3 -5 1
-10 -4 -10 -6 0 -11 5 -11 10 0 6 2 10 4 10 3 0 8 -4 11 -10z m3023 -95 l19
-24 19 20 c17 19 26 21 94 14 41 -3 147 -10 235 -15 l160 -8 190 -75 c105 -41
246 -96 315 -122 85 -33 134 -58 152 -78 35 -37 53 -99 73 -246 9 -64 27 -163
40 -221 40 -180 49 -258 49 -465 1 -179 -2 -208 -22 -280 -24 -86 -76 -172
-123 -206 -16 -11 -26 -26 -23 -33 13 -34 -118 -95 -175 -81 -48 11 -81 27
-81 40 0 16 55 39 75 31 8 -3 15 0 15 7 0 9 11 12 34 9 20 -2 37 1 41 9 5 8 4
10 -3 5 -14 -8 -153 38 -208 69 -72 42 -155 149 -181 235 -7 24 -14 82 -15
128 0 69 -4 87 -20 102 -21 19 -225 106 -345 146 -40 13 -152 38 -250 54 -233
39 -256 48 -299 116 -20 31 -37 73 -41 100 l-6 47 121 -5 c97 -3 125 -8 140
-21 18 -17 20 -17 26 -1 6 15 21 16 161 11 172 -7 203 -15 545 -142 248 -92
237 -90 271 -56 46 47 39 57 -63 90 -51 17 -170 62 -264 100 -94 38 -196 77
-225 85 -80 24 -205 36 -484 44 -282 9 -300 14 -335 82 -25 49 -25 67 -1 123
l19 44 113 6 c85 5 115 4 121 -6 4 -6 10 -38 14 -69 4 -32 9 -58 13 -58 9 0
50 80 53 105 3 19 10 20 254 18 221 -2 257 -4 305 -21 30 -11 156 -59 281
-106 125 -47 236 -86 247 -86 25 0 54 41 49 71 -2 16 -16 26 -58 39 -50 16
-181 66 -435 166 -98 39 -62 35 -580 62 -184 10 -211 19 -250 85 -32 56 -32
83 2 135 32 49 34 49 140 51 76 1 83 -1 101 -24z m-2993 5 c-3 -5 2 -10 11
-10 10 0 15 -3 11 -6 -3 -3 -15 -3 -28 1 -17 6 -19 9 -8 16 18 11 22 11 14 -1z
m4566 0 c28 -15 23 -30 -8 -30 -22 0 -25 2 -13 10 13 8 12 10 -2 10 -10 0 -18
5 -18 10 0 13 16 13 41 0z m-35 -43 c10 3 14 -2 14 -18 0 -12 -3 -19 -7 -16
-3 4 -13 1 -22 -6 -14 -10 -14 -10 -3 5 9 11 10 18 2 23 -5 3 -10 12 -9 18 0
9 2 9 5 0 3 -7 12 -9 20 -6z m-2000 -164 c-4 -50 -19 -124 -33 -170 -26 -78
-26 -86 -14 -145 7 -35 23 -82 37 -105 35 -60 32 -75 -21 -97 -66 -27 -143
-99 -151 -142 -4 -20 -12 -37 -18 -40 -6 -2 -104 -5 -218 -6 l-207 -3 -6 34
c-8 40 -108 146 -148 156 -25 7 -37 29 -37 72 0 15 10 28 29 38 63 32 131 129
146 206 4 20 1 55 -5 78 -6 24 -9 45 -6 48 3 3 38 -3 78 -13 90 -22 235 -22
310 0 70 20 169 80 221 133 23 24 44 43 46 43 2 0 1 -39 -3 -87z m149 -8 c32
-33 31 -35 -5 -35 -27 0 -30 3 -30 30 0 36 2 37 35 5z m2321 -40 c-3 -9 -15
-47 -27 -85 -22 -73 -31 -85 -54 -76 -10 4 -4 24 29 85 24 44 41 83 38 86 -3
3 0 5 7 5 8 0 11 -7 7 -15z m1614 -184 c0 -6 -4 -13 -10 -16 -5 -3 -10 1 -10
9 0 9 5 16 10 16 6 0 10 -4 10 -9z m-6525 -61 c18 -7 17 -8 -10 -15 -128 -29
-206 -66 -255 -122 -124 -142 -196 -305 -249 -566 -37 -179 -44 -269 -38 -464
6 -205 18 -274 67 -401 18 -46 30 -85 28 -87 -2 -2 -53 -5 -113 -6 l-110 -2
-32 81 c-41 102 -52 162 -30 162 23 0 82 74 95 119 15 50 16 446 1 526 -19
104 -62 164 -136 190 -35 12 -38 17 -35 46 4 44 74 198 123 271 22 32 43 75
46 94 7 41 30 60 98 79 199 55 318 87 356 94 56 11 168 12 194 1z m4586 -5
c104 -19 341 -87 372 -108 66 -43 246 -330 262 -419 l7 -37 -46 -12 c-56 -14
-119 -78 -138 -141 -9 -31 -13 -118 -13 -308 0 -263 0 -265 25 -315 27 -53 78
-95 116 -95 13 0 24 -2 24 -3 0 -8 -39 -118 -53 -149 -8 -18 -17 -41 -20 -50
-5 -14 -24 -17 -132 -20 -108 -3 -125 -1 -122 12 3 8 17 55 31 105 67 225 74
606 16 880 -23 113 -79 277 -122 358 -68 127 -209 246 -328 277 -67 16 -72 19
-65 30 9 14 89 12 186 -5z m1889 -85 c0 -5 -4 -10 -10 -10 -5 0 -10 5 -10 10
0 6 5 10 10 10 6 0 10 -4 10 -10z m-2098 -66 c67 -22 69 -26 98 -164 63 -305
75 -497 45 -727 -17 -128 -17 -128 -71 -285 -52 -154 -41 -145 -165 -120 -57
12 -126 24 -154 28 -27 4 -53 8 -57 11 -5 2 26 31 67 64 89 70 133 128 176
229 50 119 62 193 63 395 0 194 -9 270 -55 462 -33 140 -33 137 -16 130 6 -2
38 -13 69 -23z m-4302 3 c0 -8 -9 -56 -19 -108 -33 -159 -44 -300 -37 -489 6
-189 15 -240 67 -370 27 -68 46 -98 97 -152 35 -37 80 -78 100 -90 l35 -22
-89 -22 c-49 -13 -118 -33 -152 -44 -74 -24 -76 -23 -113 60 -83 184 -109 326
-109 596 0 174 9 248 50 414 44 178 59 211 100 226 47 17 70 17 70 1z m-836
-34 c-75 -99 -106 -161 -173 -344 -10 -29 -45 -39 -138 -39 -63 0 -63 2 -28
96 45 121 122 250 162 275 30 19 121 41 192 48 8 1 3 -13 -15 -36z m2286 -48
l5 -80 49 -7 c79 -11 146 -89 146 -169 l0 -32 98 6 c53 4 188 7 299 7 l203 0
6 28 c21 101 64 151 139 166 39 8 47 1 68 -55 10 -25 33 -61 52 -79 32 -31 35
-38 35 -94 l0 -61 -592 3 c-454 2 -594 5 -600 15 -4 6 -6 104 -3 217 4 204 4
205 27 212 57 16 63 9 68 -77z m3720 65 c36 -7 55 -19 95 -62 76 -82 197 -309
176 -331 -5 -5 -32 -7 -61 -5 l-52 3 -53 96 c-28 53 -78 131 -111 175 -33 43
-68 91 -77 107 l-17 27 27 0 c16 -1 48 -5 73 -10z m-3938 -277 l3 -258 65 -5
65 -5 -4 -470 c-2 -259 -4 -471 -5 -472 -1 -1 -81 -3 -179 -5 l-177 -3 -41
105 c-87 227 -104 269 -154 380 -90 197 -105 278 -59 321 40 37 61 78 80 154
21 84 51 148 94 195 17 19 38 47 46 62 7 14 26 36 40 47 15 12 21 21 14 21 -8
0 -4 8 8 18 12 11 35 45 52 78 33 63 73 94 122 94 l28 0 2 -257z m-2421 180
c-46 -87 -87 -180 -105 -238 l-22 -70 -57 -11 c-71 -14 -81 -23 -102 -82 -21
-62 -38 -323 -33 -485 4 -119 4 -126 -12 -115 -51 38 -140 96 -140 92 0 -3 28
-37 63 -77 73 -84 111 -136 105 -143 -3 -2 -43 30 -89 72 -82 75 -199 171
-229 189 -35 21 28 -58 244 -302 11 -13 17 -26 13 -29 -3 -3 -57 44 -120 105
-150 146 -205 196 -241 217 -41 24 -31 7 64 -107 47 -56 105 -128 130 -158 43
-54 43 -55 10 -27 -19 16 -82 73 -140 126 -58 54 -121 111 -140 126 -19 16
-41 35 -48 41 -42 40 -8 -24 50 -94 24 -28 63 -75 86 -102 59 -68 25 -55 -59
24 -91 85 -208 179 -215 172 -7 -6 53 -80 154 -191 34 -38 61 -71 59 -73 -7
-7 -60 26 -86 54 -65 70 -251 230 -251 217 0 -11 78 -113 130 -169 25 -27 68
-77 96 -110 l49 -60 -74 65 c-41 36 -128 118 -193 182 -65 65 -118 115 -118
112 0 -23 82 -153 127 -203 30 -34 51 -61 46 -61 -4 0 -1 -5 7 -10 8 -5 10
-10 4 -10 -16 0 -180 156 -203 194 -27 44 -27 85 3 195 43 157 76 213 190 326
203 202 416 311 752 384 189 42 219 47 272 50 28 1 31 -1 23 -16z m886 -105
c-39 -159 -47 -199 -50 -250 -3 -47 -17 -80 -17 -40 0 12 -6 22 -12 23 -10 0
-10 2 0 6 6 2 12 12 12 20 0 9 -6 13 -15 10 -18 -7 -30 9 -13 17 10 5 10 7 -1
12 -11 5 -11 8 0 15 10 6 11 9 2 9 -7 0 -13 5 -13 11 0 5 4 8 8 5 4 -3 9 11 9
31 1 19 6 40 12 46 6 6 11 17 11 25 0 23 82 188 87 175 2 -7 -7 -59 -20 -115z
m4863 80 c0 -4 -7 -8 -15 -8 -10 0 -15 10 -15 28 1 26 1 26 15 8 8 -11 15 -23
15 -28z m1117 7 c279 -57 460 -139 670 -307 143 -113 213 -222 283 -440 23
-75 25 -68 -41 -172 -39 -60 -145 -176 -162 -176 -10 0 -2 14 39 65 40 51 92
143 104 187 l10 33 -28 -35 c-42 -54 -164 -180 -185 -192 -32 -17 -30 -2 6 49
18 26 49 69 67 95 19 26 31 50 28 53 -3 3 -71 -60 -152 -140 -81 -80 -152
-145 -158 -145 -6 0 17 29 50 64 34 35 62 68 62 73 0 5 9 18 19 30 18 19 51
76 51 88 0 12 -37 -15 -90 -67 -106 -101 -241 -220 -245 -216 -2 2 11 22 30
43 173 197 219 254 213 260 -5 5 -128 -97 -210 -173 -55 -52 -127 -106 -133
-100 -2 2 35 47 83 99 85 91 139 159 128 159 -20 0 -119 -80 -223 -179 -30
-28 -45 -35 -65 -32 -5 0 -8 -4 -8 -11 0 -6 -3 -8 -7 -5 -3 4 -12 -1 -19 -11
-7 -9 -15 -15 -17 -12 -3 3 22 35 56 71 191 204 191 205 -31 41 -40 -30 -75
-52 -78 -49 -3 2 0 33 5 68 18 124 22 255 11 377 -11 124 -42 267 -61 287 -5
5 -33 15 -61 20 l-51 10 -18 60 c-9 33 -38 103 -63 156 -25 53 -46 100 -46
104 0 11 92 -1 237 -30z m-4687 -6 c-19 -17 -49 -37 -67 -45 -17 -7 -33 -19
-36 -26 -4 -9 -6 -8 -6 3 -1 20 21 40 79 73 60 34 73 32 30 -5z m5541 -12
c-10 -9 -11 -8 -5 6 3 10 9 15 12 12 3 -3 0 -11 -7 -18z m47 -15 c2 -7 -2 -10
-12 -6 -9 3 -16 11 -16 16 0 13 23 5 28 -10z m-1978 -137 c8 0 18 4 21 9 4 5
10 -7 15 -25 11 -48 11 -48 14 -56 1 -5 2 -11 1 -15 0 -5 4 -8 10 -8 6 0 9 -8
7 -18 -3 -10 1 -23 9 -30 7 -7 10 -18 6 -25 -5 -8 -8 -8 -11 1 -3 9 -9 9 -24
1 -21 -11 -21 -12 3 -25 20 -11 21 -13 5 -14 -12 0 -16 -5 -12 -15 5 -13 -5
-19 -26 -16 -4 0 -3 -12 3 -27 29 -72 45 -162 29 -162 -6 0 -8 4 -5 10 7 11
-12 50 -25 50 -10 0 16 -70 32 -85 7 -7 9 -7 5 0 -3 6 6 15 19 22 13 6 21 7
18 2 -3 -6 -1 -16 6 -24 9 -11 6 -17 -17 -29 -20 -11 -23 -15 -10 -16 9 0 17
-5 17 -11 0 -5 -4 -8 -9 -4 -5 3 -12 -4 -16 -15 -3 -11 -11 -20 -17 -20 -7 0
-6 5 2 15 6 8 8 19 4 26 -4 7 3 19 17 30 13 10 18 19 12 19 -19 0 -59 -43 -45
-48 17 -5 15 -22 -3 -22 -9 0 -12 -6 -8 -17 4 -10 2 -14 -4 -10 -6 4 -10 0 -9
-10 0 -9 -5 -18 -13 -21 -12 -4 -13 9 -8 72 5 76 -6 396 -18 485 -4 25 -3 42
2 36 4 -5 15 -10 23 -10z m-1870 -140 c0 -25 -31 -65 -50 -65 -11 0 -14 73 -3
83 3 4 17 7 30 7 18 0 23 -5 23 -25z m180 -15 c0 -37 -51 -195 -69 -213 -17
-17 -20 -17 -92 7 -41 14 -101 30 -134 37 -87 17 -185 48 -185 59 0 16 165 12
258 -6 79 -15 85 -15 104 3 11 10 29 38 40 63 24 56 36 70 59 70 12 0 19 -7
19 -20z m147 -45 c3 -9 -8 -46 -25 -83 -17 -37 -42 -101 -56 -142 -29 -82 -40
-100 -56 -84 -7 7 -2 34 16 85 14 41 36 106 49 146 13 39 26 77 30 82 9 16 35
13 42 -4z m-3949 -45 c18 -11 37 -32 42 -46 15 -39 13 -493 -3 -523 -31 -60
-84 -73 -359 -86 -144 -7 -146 -7 -158 15 -18 34 -25 343 -11 500 7 74 14 137
17 140 10 10 120 17 279 18 144 2 163 0 193 -18z m6376 11 l110 -6 8 -30 c18
-68 28 -290 18 -429 -6 -78 -12 -153 -16 -168 l-5 -26 -202 5 c-111 3 -218 11
-237 17 -26 8 -40 22 -55 51 -18 37 -20 60 -20 270 0 127 3 243 8 258 4 15 22
36 40 47 35 22 121 24 351 11z m-2250 -17 c45 -16 46 -17 30 -35 -9 -10 -21
-16 -26 -13 -6 4 -5 9 2 14 8 5 5 9 -9 13 -14 3 -19 1 -14 -6 4 -7 0 -8 -12
-3 -11 4 -22 2 -26 -6 -5 -7 -7 1 -7 20 1 37 0 37 62 16z m1446 6 c0 -5 -4
-10 -10 -10 -5 0 -10 5 -10 10 0 6 5 10 10 10 6 0 10 -4 10 -10z m-43 -22 c-3
-8 -6 -5 -6 6 -1 11 2 17 5 13 3 -3 4 -12 1 -19z m-2591 -2 c75 -4 105 -10
175 -39 122 -50 337 -116 450 -137 122 -23 139 -32 139 -70 0 -34 -13 -37 -90
-19 -66 15 -324 96 -410 130 -41 16 -120 41 -175 56 -97 27 -107 28 -368 28
-283 0 -286 0 -287 47 0 15 20 16 238 12 130 -2 278 -6 328 -8z m1284 -32 c0
-2 -9 0 -20 6 -11 6 -20 13 -20 16 0 2 9 0 20 -6 11 -6 20 -13 20 -16z m-3680
-14 c0 -4 -6 -10 -14 -13 -10 -4 -12 0 -9 14 5 18 23 18 23 -1z m3667 -15 c0
-8 -4 -15 -9 -15 -10 0 -11 14 -1 23 9 10 10 9 10 -8z m-143 -7 c-3 -4 4 -8
15 -8 11 0 23 5 26 10 5 8 11 8 20 0 7 -6 21 -8 31 -4 16 5 16 4 4 -5 -13 -9
-12 -11 5 -11 16 0 17 -2 5 -9 -8 -6 -17 -8 -21 -5 -4 2 -10 0 -14 -6 -4 -6
-11 -8 -16 -4 -6 4 -6 11 1 19 6 7 7 16 2 19 -5 3 -14 -6 -20 -20 -10 -20 -9
-26 2 -30 8 -3 12 -12 10 -19 -8 -21 12 -26 27 -7 13 15 12 16 -3 3 -22 -16
-23 -3 -3 23 8 11 15 14 15 7 0 -7 4 -10 9 -7 5 3 11 -1 15 -9 3 -8 12 -12 21
-9 21 9 19 -10 -5 -31 -11 -10 -20 -14 -20 -8 0 5 -7 10 -15 10 -25 0 -17 -12
17 -25 37 -14 35 -15 42 22 3 16 8 31 12 35 9 9 1 -52 -9 -66 -5 -7 -6 -16 -4
-21 3 -4 -5 -8 -18 -8 -13 0 -22 3 -19 7 2 4 0 10 -6 14 -5 3 -10 1 -10 -4 0
-15 -13 -14 -36 5 -15 13 -16 15 -2 10 12 -3 15 -1 11 10 -4 11 -8 12 -20 3
-12 -10 -10 -16 8 -35 12 -13 26 -21 30 -18 18 10 37 -10 28 -31 -6 -17 -8
-17 -8 -2 -1 11 -9 17 -25 17 -13 0 -26 3 -29 8 -2 4 -2 1 -1 -5 2 -7 -5 -17
-14 -23 -15 -9 -15 -12 8 -31 17 -14 19 -19 8 -15 -11 3 -18 0 -18 -7 0 -13
33 -15 62 -2 10 4 15 11 12 16 -3 5 -1 9 4 9 10 0 24 -41 17 -49 -3 -2 -5 1
-5 7 0 7 -5 12 -11 12 -5 0 -7 -4 -4 -10 3 -5 0 -7 -8 -4 -8 3 -18 1 -22 -5
-3 -6 2 -11 12 -11 15 0 16 -2 3 -10 -12 -8 -10 -10 10 -10 17 0 21 -3 13 -11
-16 -16 -46 -7 -49 14 -3 22 -14 36 -14 18 0 -7 -4 -9 -10 -6 -5 3 -10 1 -10
-4 0 -6 4 -11 9 -11 5 0 11 -9 14 -21 3 -12 10 -18 16 -15 5 4 12 2 15 -3 14
-22 -12 -18 -37 5 -15 14 -27 20 -27 15 0 -5 5 -13 10 -16 6 -4 8 -11 4 -16
-3 -6 0 -10 7 -9 24 3 55 -11 67 -31 7 -10 8 -19 3 -19 -5 0 -11 7 -15 15 -3
8 -10 15 -16 15 -6 0 -8 -4 -5 -10 3 -5 2 -10 -4 -10 -5 0 -15 8 -21 18 -8 14
-9 12 -4 -9 3 -15 1 -30 -5 -34 -6 -3 -9 -11 -6 -16 4 -5 -2 -9 -11 -9 -10 0
-14 -3 -11 -6 8 -9 67 16 67 28 0 5 -4 6 -10 3 -5 -3 -10 -1 -10 4 0 19 22 12
27 -9 6 -22 23 -28 23 -7 0 7 8 17 19 24 17 11 18 10 7 -12 -13 -29 -46 -51
-55 -37 -4 6 -11 4 -19 -4 -11 -12 -8 -14 15 -14 22 0 25 -2 13 -10 -12 -8
-10 -10 8 -10 15 0 21 4 16 12 -4 7 -3 8 5 4 9 -6 9 -11 0 -22 -9 -11 -7 -14
10 -14 11 0 21 -4 21 -10 0 -5 5 -10 11 -10 6 0 17 -7 25 -15 14 -13 14 -15
-2 -15 -9 0 -25 10 -36 22 -16 19 -21 20 -28 8 -6 -8 -9 -19 -9 -25 0 -5 3 -4
6 3 4 9 12 8 34 -5 34 -20 35 -27 10 -79 -35 -74 -81 -182 -81 -192 0 -16 -20
-19 -120 -16 -52 2 -137 3 -188 3 l-92 1 6 278 c4 152 8 278 9 280 2 2 17 -4
35 -13 17 -9 47 -15 67 -13 31 3 37 8 51 43 43 113 75 185 80 181 4 -2 13 2
20 10 7 8 8 14 2 14 -5 0 -10 8 -9 18 0 10 3 12 6 5 8 -22 20 -14 18 12 -2 14
1 25 6 25 6 0 9 -8 7 -17 -2 -10 3 -18 12 -18 8 -1 14 -6 13 -13 -2 -6 4 -9
12 -6 21 8 19 21 -6 35 -17 9 -19 13 -8 20 10 6 6 9 -13 9 -19 0 -26 4 -22 13
3 8 11 14 19 14 8 0 12 -4 9 -9z m-3528 -59 c0 -33 -3 -54 -6 -47 -6 10 -7 94
-1 106 5 10 7 -6 7 -59z m5031 39 c-3 -8 -6 -5 -6 6 -1 11 2 17 5 13 3 -3 4
-12 1 -19z m-1317 -7 c0 -5 3 -17 7 -26 5 -14 3 -16 -13 -8 -10 6 -24 8 -31 6
-6 -2 -14 1 -18 6 -4 7 0 8 11 4 13 -5 16 -3 11 10 -5 12 -1 17 13 17 11 0 20
-4 20 -9z m1328 -36 c-3 -3 -9 2 -12 12 -6 14 -5 15 5 6 7 -7 10 -15 7 -18z
m-2871 -50 c14 -5 39 -82 30 -91 -7 -8 -69 20 -68 30 1 7 -7 6 -27 -2 -7 -2
-18 0 -24 6 -7 7 -16 7 -30 -1 -15 -10 -20 -9 -28 3 -6 10 -12 12 -20 4 -13
-13 5 -70 26 -78 8 -3 14 -14 14 -25 0 -11 5 -21 12 -23 9 -3 9 -6 0 -12 -7
-4 -24 17 -46 61 -19 37 -44 82 -55 98 -12 17 -21 33 -21 36 0 7 215 1 237 -6z
m-2168 -44 c-2 -6 -10 2 -17 17 -11 25 -11 25 4 10 9 -9 15 -21 13 -27z m2493
13 c54 -15 98 -31 98 -36 0 -5 -9 -46 -20 -91 -10 -45 -26 -120 -35 -167 -19
-99 -46 -202 -52 -196 -3 2 -20 69 -39 148 -19 78 -48 184 -63 233 -16 50 -32
100 -36 113 -5 19 -3 22 21 22 15 0 72 -12 126 -26z m1224 -2 c0 -10 -6 -19
-13 -19 -8 0 -9 6 -2 19 5 10 11 18 12 18 2 0 3 -8 3 -18z m-3716 -53 c0 -5
-4 -9 -8 -9 -5 0 -9 7 -9 15 0 8 4 12 9 9 4 -3 8 -9 8 -15z m3620 -35 c0 -7
-4 -15 -9 -18 -5 -4 -7 3 -4 14 3 12 0 20 -6 20 -7 0 -9 -5 -5 -12 4 -7 3 -8
-4 -4 -6 4 -9 13 -5 22 4 11 9 12 19 3 8 -6 14 -17 14 -25z m1419 18 c7 -13 6
-19 -2 -19 -7 0 -13 9 -13 19 0 10 1 18 3 18 1 0 7 -8 12 -18z m-1353 -10 c1
-7 0 -8 -3 -2 -2 5 -9 8 -14 4 -5 -3 -9 0 -9 6 0 15 23 7 26 -8z m-3666 -92
c20 -135 20 -139 9 -146 -6 -3 -13 4 -16 16 -4 16 -8 18 -14 8 -5 -7 -9 -8 -9
-3 0 6 5 17 10 25 6 10 10 11 10 3 0 -7 5 -13 10 -13 24 0 7 19 -26 30 -27 9
-33 15 -23 21 11 7 9 9 -6 10 -17 1 -17 2 -2 6 19 5 22 18 7 28 -18 11 -10 25
13 22 12 -2 16 -2 10 0 -7 3 -13 9 -13 14 0 6 -4 7 -10 4 -6 -4 -7 1 -3 11 5
15 7 15 15 0 5 -9 14 -16 20 -16 7 0 7 4 -1 14 -6 7 -9 21 -5 30 3 9 1 16 -6
16 -6 0 -8 5 -4 11 12 20 22 -5 34 -91z m2745 90 c14 -5 23 -15 20 -20 -4 -6
-10 -8 -15 -5 -12 7 -40 -23 -40 -42 0 -9 -3 -14 -6 -10 -6 6 5 87 11 87 2 0
16 -4 30 -10z m2238 -17 c-3 -7 -9 -10 -14 -7 -14 8 -11 21 5 21 8 0 12 -6 9
-14z m-2918 -3 c3 -5 0 -7 -9 -4 -8 3 -16 -2 -19 -13 -4 -14 -5 -14 -6 5 -1
22 22 31 34 12z m1670 -8 c-3 -3 -11 0 -18 7 -9 10 -8 11 6 5 10 -3 15 -9 12
-12z m-51 -10 c3 -5 -1 -9 -9 -9 -8 0 -12 4 -9 9 3 4 7 8 9 8 2 0 6 -4 9 -8z
m1255 -27 c6 3 8 13 5 23 -5 15 -4 15 10 -2 8 -10 19 -15 25 -12 5 4 9 -2 8
-14 -1 -22 -13 -27 -19 -8 -4 10 -10 10 -32 0 -16 -7 -24 -17 -20 -23 4 -8 9
-7 16 2 8 11 9 11 5 -1 -7 -26 -35 -24 -32 2 1 13 3 34 4 48 l2 25 10 -23 c5
-13 13 -21 18 -17z m-2869 10 c10 -12 10 -15 -4 -15 -9 0 -16 7 -16 15 0 8 2
15 4 15 2 0 9 -7 16 -15z m1726 -32 c-1 -1 -12 0 -23 3 -17 5 -19 9 -10 19 9
10 14 9 24 -4 6 -9 10 -17 9 -18z m-136 7 c0 -11 -4 -20 -9 -20 -5 0 -7 9 -4
20 3 11 7 20 9 20 2 0 4 -9 4 -20z m60 16 c0 -2 -8 -10 -17 -17 -16 -13 -17
-12 -4 4 13 16 21 21 21 13z m-1652 -30 c-10 -7 -14 -17 -10 -22 4 -4 -1 -2
-11 5 -14 11 -15 16 -5 22 7 5 20 9 28 9 12 -1 12 -3 -2 -14z m2907 -8 c6 -4
2 -8 -7 -8 -10 0 -18 7 -18 17 0 9 3 12 8 7 4 -5 12 -12 17 -16z m-4125 -4 c0
-4 -9 -22 -21 -40 -22 -36 -146 -124 -174 -124 -24 0 -80 59 -68 71 5 5 45 24
89 40 43 17 95 37 114 45 39 14 60 17 60 8z m2854 -2 c3 -5 -1 -9 -9 -9 -8 0
-12 4 -9 9 3 4 7 8 9 8 2 0 6 -4 9 -8z m-54 -12 c0 -5 -5 -10 -11 -10 -5 0 -7
5 -4 10 3 6 8 10 11 10 2 0 4 -4 4 -10z m133 -5 c-3 -9 -8 -14 -10 -11 -3 3
-2 9 2 15 9 16 15 13 8 -4z m1197 -5 c0 -5 -2 -10 -4 -10 -3 0 -8 5 -11 10 -3
6 -1 10 4 10 6 0 11 -4 11 -10z m-30 -10 c0 -5 -7 -7 -15 -4 -8 4 -15 1 -15
-5 0 -6 -5 -11 -11 -11 -8 0 -8 5 1 15 14 17 40 20 40 5z m-1286 -16 c3 -8 2
-12 -4 -9 -6 3 -10 10 -10 16 0 14 7 11 14 -7z m96 -5 c0 -5 -4 -7 -10 -4 -5
3 -10 1 -10 -6 0 -7 -3 -10 -6 -6 -8 7 4 27 17 27 5 0 9 -5 9 -11z m30 1 c0
-5 -5 -10 -11 -10 -5 0 -7 5 -4 10 3 6 8 10 11 10 2 0 4 -4 4 -10z m-5922 -62
c16 -29 50 -76 76 -104 58 -65 59 -74 2 -20 -49 47 -80 89 -101 140 -22 52
-12 44 23 -16z m2082 42 c0 -5 -4 -10 -10 -10 -5 0 -10 5 -10 10 0 6 5 10 10
10 6 0 10 -4 10 -10z m3711 -83 c16 -12 15 -37 -2 -37 -6 0 -7 5 -3 12 4 6 -1
17 -11 25 -11 7 -15 13 -9 13 5 0 16 -6 25 -13z m49 -36 c0 -4 -6 -8 -14 -8
-8 0 -12 6 -9 14 5 13 23 9 23 -6z m23 -1 c-3 -12 -8 -19 -11 -16 -5 6 5 36
12 36 2 0 2 -9 -1 -20z m-1512 -75 c7 -13 3 -12 -10 5 -11 14 -21 30 -21 35 0
11 14 -7 31 -40z m436 -2 c-4 -3 2 -12 13 -20 19 -13 18 -15 -11 -66 -17 -28
-41 -76 -55 -104 -44 -92 -64 -85 -40 14 37 154 49 183 75 183 13 0 21 -3 18
-7z m-359 -21 c12 12 10 16 57 -115 15 -43 26 -80 24 -82 -9 -8 -48 35 -96
105 -37 54 -48 76 -37 78 8 2 14 8 14 14 0 7 4 7 13 -1 10 -8 17 -7 25 1z
m-2885 -136 c22 -59 38 -108 36 -109 -2 -2 -81 -1 -176 1 l-172 4 -20 52 c-10
28 -22 73 -26 99 l-7 47 128 1 c71 1 140 5 154 9 14 4 29 7 34 6 5 -1 27 -50
49 -110z m6432 67 c-3 -10 -18 -53 -33 -95 l-27 -78 -143 0 -142 0 19 38 c10
20 27 63 37 95 l18 57 139 0 c128 0 139 -1 132 -17z m-1287 -133 c-7 -10 -14
-17 -17 -15 -4 4 18 35 25 35 2 0 -1 -9 -8 -20z"/>
<path d="M4412 9551 c-19 -5 -38 -13 -43 -18 -20 -20 20 -86 108 -176 93 -95
126 -144 121 -178 -2 -16 -13 -6 -45 43 -41 62 -162 193 -170 185 -2 -3 12
-24 31 -48 83 -104 148 -208 141 -229 -7 -22 -59 -67 -153 -129 -121 -82 -46
-103 105 -31 177 86 299 265 278 407 -9 62 -77 131 -154 156 -64 21 -173 29
-219 18z m167 -198 c35 -32 62 -64 60 -70 -2 -6 -44 28 -94 74 -55 52 -78 79
-60 70 17 -8 59 -41 94 -74z"/>
<path d="M5809 9537 c-90 -38 -146 -91 -169 -163 -15 -43 -5 -152 14 -173 9
-10 16 -25 16 -34 0 -9 3 -17 8 -17 4 0 18 -17 32 -38 76 -114 165 -188 233
-191 20 -1 49 -6 63 -11 14 -6 42 -10 63 -10 96 0 87 63 -15 110 -34 15 -89
46 -123 69 -58 40 -61 44 -61 83 0 33 -2 38 -14 29 -10 -9 -16 -8 -26 4 -10
12 -9 20 5 42 40 62 171 163 189 146 3 -4 6 1 6 11 0 13 4 15 19 6 29 -15 39
-12 17 5 -11 9 -14 15 -7 15 27 0 52 52 31 65 -6 4 -5 13 2 25 21 33 -2 42
-119 47 -97 3 -114 2 -164 -20z"/>
<path d="M5954 9312 c-33 -30 -76 -97 -67 -106 4 -3 17 11 31 32 14 20 36 49
50 64 34 37 24 44 -14 10z"/>
<path d="M6620 8220 c0 -5 5 -10 10 -10 6 0 10 5 10 10 0 6 -4 10 -10 10 -5 0
-10 -4 -10 -10z"/>
<path d="M6668 8222 c-10 -2 -18 -8 -18 -13 0 -11 11 -11 30 1 18 11 11 18
-12 12z"/>
<path d="M6505 8210 c3 -5 8 -10 11 -10 2 0 4 5 4 10 0 6 -5 10 -11 10 -5 0
-7 -4 -4 -10z"/>
<path d="M6548 8213 c7 -3 16 -2 19 1 4 3 -2 6 -13 5 -11 0 -14 -3 -6 -6z"/>
<path d="M6600 8185 c-7 -9 -10 -18 -6 -22 3 -3 6 -1 6 5 0 17 27 3 33 -17 4
-17 39 -23 53 -9 3 4 -6 5 -20 4 -29 -4 -33 5 -11 24 11 9 15 9 15 1 0 -7 5
-9 11 -5 8 4 7 9 -2 15 -7 4 -19 4 -25 -2 -14 -11 -46 -1 -38 12 9 15 -3 10
-16 -6z"/>
<path d="M6698 8193 c7 -3 16 -2 19 1 4 3 -2 6 -13 5 -11 0 -14 -3 -6 -6z"/>
<path d="M6725 8140 c3 -5 8 -10 11 -10 2 0 4 5 4 10 0 6 -5 10 -11 10 -5 0
-7 -4 -4 -10z"/>
<path d="M6755 8140 c-3 -5 -1 -10 4 -10 6 0 11 5 11 10 0 6 -2 10 -4 10 -3 0
-8 -4 -11 -10z"/>
<path d="M6600 8105 c0 -8 2 -15 4 -15 2 0 6 7 10 15 3 8 1 15 -4 15 -6 0 -10
-7 -10 -15z"/>
<path d="M6640 8110 c-12 -8 -9 -9 12 -8 15 1 24 6 22 10 -7 10 -16 10 -34 -2z"/>
<path d="M6529 8093 c-13 -16 -12 -17 4 -4 9 7 17 15 17 17 0 8 -8 3 -21 -13z"/>
<path d="M6854 8035 c3 -8 1 -15 -3 -15 -5 0 -11 6 -14 13 -3 9 -7 9 -17 0 -9
-8 -7 -13 9 -18 23 -7 55 11 45 26 -9 15 -26 10 -20 -6z"/>
<path d="M6976 8021 c-4 -5 -2 -12 3 -15 5 -4 12 -2 15 3 4 5 2 12 -3 15 -5 4
-12 2 -15 -3z"/>
<path d="M7132 7980 c0 -14 2 -19 5 -12 2 6 2 18 0 25 -3 6 -5 1 -5 -13z"/>
<path d="M7107 7983 c-4 -3 -7 -11 -7 -17 0 -6 5 -5 12 2 6 6 9 14 7 17 -3 3
-9 2 -12 -2z"/>
<path d="M7190 8101 c0 -6 5 -13 10 -16 6 -3 10 1 10 9 0 9 -4 16 -10 16 -5 0
-10 -4 -10 -9z"/>
<path d="M4916 6853 c-10 -11 5 -124 22 -162 18 -39 105 -99 191 -132 90 -34
261 -23 261 17 0 6 18 19 41 29 71 33 109 98 109 191 0 50 -14 64 -61 64 -36
0 -37 -1 -44 -42 -10 -55 -54 -98 -125 -121 -72 -23 -116 -21 -180 9 -69 32
-97 58 -106 98 -3 17 -11 37 -16 44 -11 13 -80 17 -92 5z"/>
<path d="M4674 6634 c-56 -27 -86 -68 -91 -121 -4 -39 -1 -53 17 -75 26 -33
43 -35 70 -8 l21 21 44 -31 c87 -60 164 -88 295 -110 239 -39 437 -19 594 59
45 22 89 46 98 53 14 10 22 10 38 0 62 -38 127 30 106 112 -8 34 -62 83 -112
102 -81 31 -125 -8 -66 -58 50 -42 48 -46 -25 -79 -260 -117 -619 -114 -869 6
-41 20 -74 40 -74 45 0 6 10 18 21 28 47 38 50 43 38 58 -15 18 -66 17 -105
-2z"/>
<path d="M5007 6164 c-15 -15 -6 -58 18 -90 39 -51 94 -67 223 -63 100 4 112
6 144 31 19 15 41 41 48 59 12 28 12 33 -5 46 -11 7 -26 10 -35 7 -50 -22
-307 -14 -374 12 -7 3 -15 1 -19 -2z"/>
<path d="M6590 4117 c0 -20 7 -40 18 -49 29 -25 396 -245 535 -319 71 -39 167
-95 213 -124 46 -30 98 -62 116 -71 18 -9 34 -18 36 -19 2 -2 -13 -34 -32 -72
-20 -37 -78 -176 -130 -308 -52 -132 -118 -289 -146 -350 -112 -237 -134 -321
-91 -345 37 -19 49 -11 66 43 9 28 41 102 70 162 29 61 83 182 118 270 100
243 183 439 234 549 26 55 42 101 37 103 -6 2 -73 39 -150 81 -76 43 -186 105
-244 137 -58 32 -204 116 -325 186 -215 124 -283 159 -311 159 -9 0 -14 -12
-14 -33z"/>
<path d="M6414 5870 c15 -25 43 -77 61 -116 33 -71 55 -99 55 -71 0 31 -25 85
-66 143 -53 76 -89 107 -50 44z"/>
<path d="M7837 4723 c-4 -3 -7 -11 -7 -17 0 -6 5 -5 12 2 6 6 9 14 7 17 -3 3
-9 2 -12 -2z"/>
<path d="M7927 4714 c-3 -4 -3 -20 0 -38 6 -30 6 -31 -14 -13 -19 17 -33 14
-33 -7 0 -6 5 -4 10 4 5 8 10 13 11 10 0 -3 2 -15 5 -28 2 -14 0 -21 -6 -17
-5 3 -10 2 -10 -3 0 -6 7 -13 16 -16 8 -3 12 -2 9 4 -3 5 5 18 17 29 12 12 18
21 13 21 -4 0 0 10 11 22 17 19 17 21 2 15 -20 -7 -35 9 -16 16 7 3 8 6 2 6
-6 1 -13 -2 -17 -5z"/>
<path d="M7955 4648 l-16 -33 21 24 c11 13 20 27 20 32 0 18 -10 8 -25 -23z"/>
<path d="M7765 4630 c6 -10 4 -12 -8 -7 -10 3 -17 2 -17 -3 0 -13 27 -13 35
-1 3 5 0 13 -6 17 -8 5 -9 3 -4 -6z"/>
<path d="M7780 4566 c0 -2 7 -7 16 -10 8 -3 12 -2 9 4 -6 10 -25 14 -25 6z"/>
<path d="M7578 4483 c7 -3 16 -2 19 1 4 3 -2 6 -13 5 -11 0 -14 -3 -6 -6z"/>
<path d="M7513 4465 c0 -10 5 -11 17 -5 10 5 20 7 24 5 3 -3 4 -2 1 2 -11 14
-42 12 -42 -2z"/>
<path d="M7430 4456 c0 -2 7 -9 15 -16 13 -11 14 -10 9 4 -5 14 -24 23 -24 12z"/>
<path d="M7383 4433 c9 -2 23 -2 30 0 6 3 -1 5 -18 5 -16 0 -22 -2 -12 -5z"/>
<path d="M7343 4375 c0 -8 4 -12 9 -9 5 3 6 10 3 15 -9 13 -12 11 -12 -6z"/>
<path d="M7238 4363 c7 -3 16 -2 19 1 4 3 -2 6 -13 5 -11 0 -14 -3 -6 -6z"/>
<path d="M7200 4350 c0 -6 7 -10 15 -10 8 0 15 2 15 4 0 2 -7 6 -15 10 -8 3
-15 1 -15 -4z"/>
<path d="M7196 4318 c3 -4 11 -5 19 -1 21 7 19 12 -4 10 -11 0 -18 -5 -15 -9z"/>
<path d="M7175 4299 c-10 -15 3 -25 16 -12 7 7 7 13 1 17 -6 3 -14 1 -17 -5z"/>
<path d="M9125 3258 c2 -12 14 -63 25 -113 26 -119 51 -202 47 -157 -3 24 1
32 12 33 14 0 14 1 1 7 -25 12 -24 42 2 43 13 0 17 3 11 6 -25 9 -13 23 15 17
15 -4 23 -3 19 2 -9 9 -13 10 -41 13 -8 0 -16 8 -19 15 -4 10 -1 13 9 9 20 -7
18 4 -6 29 -21 22 -19 41 2 20 27 -27 29 -9 2 20 -23 25 -25 30 -9 25 l20 -7
-20 15 c-11 9 -28 14 -37 11 -11 -2 -18 1 -18 9 0 8 -5 17 -10 20 -7 4 -9 -2
-5 -17z"/>
<path d="M9256 3067 c3 -10 9 -15 12 -12 3 3 0 11 -7 18 -10 9 -11 8 -5 -6z"/>
<path d="M9275 3010 c-3 -5 -1 -10 4 -10 6 0 11 5 11 10 0 6 -2 10 -4 10 -3 0
-8 -4 -11 -10z"/>
<path d="M9245 2960 c-3 -5 1 -10 10 -10 9 0 13 5 10 10 -3 6 -8 10 -10 10 -2
0 -7 -4 -10 -10z"/>
<path d="M9290 2946 c0 -8 4 -17 9 -20 5 -4 7 3 4 14 -6 23 -13 26 -13 6z"/>
<path d="M9260 2920 c12 -8 13 -12 2 -19 -11 -6 -9 -9 7 -14 26 -7 36 20 11
33 -24 13 -40 13 -20 0z"/>
<path d="M9313 2895 c-3 -9 -3 -18 -1 -21 3 -3 8 4 11 16 6 23 -1 27 -10 5z"/>
<path d="M9221 2854 c0 -11 3 -14 6 -6 3 7 2 16 -1 19 -3 4 -6 -2 -5 -13z"/>
<path d="M9250 2859 c0 -5 5 -7 10 -4 6 3 10 8 10 11 0 2 -4 4 -10 4 -5 0 -10
-5 -10 -11z"/>
<path d="M9270 2845 c-16 -19 -1 -19 24 0 16 12 17 15 4 15 -8 0 -21 -7 -28
-15z"/>
<path d="M9327 2843 c5 -13 2 -15 -11 -10 -10 4 -23 4 -29 0 -7 -4 -2 -10 13
-15 21 -6 20 -7 -8 -4 -18 1 -35 -1 -38 -6 -5 -8 10 -12 36 -8 10 1 8 -5 -7
-19 -25 -24 -37 -27 -30 -8 2 6 -2 18 -9 25 -15 14 -17 9 -8 -24 4 -14 19 -25
45 -33 46 -14 50 -28 12 -34 l-28 -4 28 -2 c15 0 27 -6 27 -11 0 -6 -6 -10
-14 -8 -8 2 -14 -1 -13 -7 1 -5 8 -9 15 -9 10 2 10 -1 0 -14 -11 -13 -9 -14
19 -10 18 2 30 1 28 -3 -3 -4 6 -14 20 -23 14 -9 25 -13 25 -9 0 5 5 1 10 -7
7 -11 8 -7 6 15 -3 21 -8 29 -20 27 -21 -4 -21 24 1 32 15 6 15 8 3 16 -8 6
-11 10 -7 10 4 0 -1 10 -13 22 -18 20 -24 40 -23 76 1 10 -5 9 -23 -3 -13 -8
-24 -11 -24 -6 0 5 7 11 15 15 16 6 21 56 5 56 -5 0 -6 -8 -3 -17z m3 -77 c0
-9 -30 -14 -35 -6 -4 6 3 10 14 10 12 0 21 -2 21 -4z m25 -54 c-3 -3 -11 0
-18 7 -9 10 -8 11 6 5 10 -3 15 -9 12 -12z m0 -42 c3 -5 1 -10 -4 -10 -6 0
-11 5 -11 10 0 6 2 10 4 10 3 0 8 -4 11 -10z"/>
<path d="M7614 2779 c0 -13 3 -15 13 -7 7 6 13 12 13 13 0 2 -6 5 -13 8 -7 3
-13 -3 -13 -14z"/>
<path d="M7640 2750 c-13 -8 -12 -11 5 -24 26 -20 35 -20 35 0 0 8 -4 12 -10
9 -5 -3 -10 -2 -10 4 0 5 6 12 13 14 8 4 7 6 -3 6 -8 0 -22 -4 -30 -9z"/>
<path d="M9250 2730 c0 -5 10 -10 23 -10 18 0 19 2 7 10 -19 13 -30 13 -30 0z"/>
<path d="M7530 2628 c0 -9 5 -20 11 -23 17 -11 18 -2 3 19 -12 17 -14 17 -14
4z"/>
<path d="M7640 2630 c-9 -6 -10 -10 -3 -10 6 0 15 5 18 10 8 12 4 12 -15 0z"/>
<path d="M9305 2610 c3 -5 8 -10 11 -10 2 0 4 5 4 10 0 6 -5 10 -11 10 -5 0
-7 -4 -4 -10z"/>
<path d="M9353 2595 c-10 -11 -9 -13 6 -12 11 1 17 7 14 14 -6 16 -5 16 -20
-2z"/>
<path d="M7415 2440 c-3 -5 3 -10 14 -10 12 0 21 -5 21 -11 0 -5 -3 -8 -7 -6
-5 3 -8 -6 -8 -19 0 -22 1 -23 13 -7 17 23 15 50 -4 57 -21 8 -22 8 -29 -4z"/>
<path d="M9459 2319 c-8 -16 -18 -20 -40 -17 -17 3 -33 0 -36 -6 -3 -6 -3 -8
2 -4 4 4 15 3 24 -1 11 -6 30 -3 56 10 23 10 32 18 22 19 -10 0 -15 5 -12 10
3 6 4 10 1 10 -3 0 -10 -9 -17 -21z"/>
<path d="M9410 2319 c0 -5 5 -7 10 -4 6 3 10 8 10 11 0 2 -4 4 -10 4 -5 0 -10
-5 -10 -11z"/>
<path d="M9480 2291 c0 -5 -10 -11 -22 -13 -24 -4 -25 -8 -13 -47 4 -14 3 -21
-2 -18 -6 4 -18 0 -28 -7 -16 -12 -15 -12 13 -8 31 4 38 17 33 60 -1 6 7 12
19 12 23 0 27 -18 6 -26 -8 -3 -12 -12 -10 -19 3 -7 0 -16 -5 -20 -6 -3 -9
-11 -5 -16 7 -12 34 8 34 26 0 8 6 16 13 18 9 4 8 6 -2 6 -9 1 -10 5 -4 14 7
8 4 18 -9 30 -10 9 -18 13 -18 8z"/>
<path d="M9390 2260 c8 -5 20 -10 25 -10 6 0 3 5 -5 10 -8 5 -19 10 -25 10 -5
0 -3 -5 5 -10z"/>
<path d="M9388 2228 c9 -9 15 -9 24 0 9 9 7 12 -12 12 -19 0 -21 -3 -12 -12z"/>
<path d="M9440 2180 c0 -5 5 -10 10 -10 6 0 10 5 10 10 0 6 -4 10 -10 10 -5 0
-10 -4 -10 -10z"/>
<path d="M9408 2163 c7 -3 16 -2 19 1 4 3 -2 6 -13 5 -11 0 -14 -3 -6 -6z"/>
<path d="M9450 2050 c0 -5 7 -10 16 -10 8 0 12 5 9 10 -3 6 -10 10 -16 10 -5
0 -9 -4 -9 -10z"/>
<path d="M9537 1961 c-3 -12 -2 -23 3 -26 11 -7 20 19 10 34 -5 9 -9 7 -13 -8z"/>
<path d="M9570 1970 c8 -5 20 -10 25 -10 6 0 3 5 -5 10 -8 5 -19 10 -25 10 -5
0 -3 -5 5 -10z"/>
<path d="M9565 1940 c-3 -5 1 -10 10 -10 9 0 13 5 10 10 -3 6 -8 10 -10 10 -2
0 -7 -4 -10 -10z"/>
<path d="M9535 1810 c3 -5 8 -10 11 -10 2 0 4 5 4 10 0 6 -5 10 -11 10 -5 0
-7 -4 -4 -10z"/>
<path d="M9595 1760 c3 -5 8 -10 11 -10 2 0 4 5 4 10 0 6 -5 10 -11 10 -5 0
-7 -4 -4 -10z"/>
<path d="M2794 4661 c8 -12 -19 -33 -29 -23 -5 4 -5 1 -1 -6 6 -11 12 -10 27
4 16 14 18 34 3 34 -3 0 -3 -4 0 -9z"/>
<path d="M2730 4600 c-9 -6 -10 -10 -3 -10 6 0 15 5 18 10 8 12 4 12 -15 0z"/>
<path d="M2774 4589 c-3 -6 -2 -15 3 -20 5 -5 9 -1 9 11 0 23 -2 24 -12 9z"/>
<path d="M2730 4581 c-14 -4 -20 -10 -14 -14 6 -3 20 0 30 8 21 16 20 16 -16
6z"/>
<path d="M2889 4573 c-13 -17 -13 -17 6 -3 11 8 22 16 24 17 2 2 0 3 -6 3 -6
0 -17 -8 -24 -17z"/>
<path d="M3086 4408 c3 -4 9 -8 15 -8 5 0 9 4 9 8 0 5 -7 9 -15 9 -8 0 -12 -4
-9 -9z"/>
<path d="M3120 4399 c0 -5 5 -7 10 -4 6 3 10 8 10 11 0 2 -4 4 -10 4 -5 0 -10
-5 -10 -11z"/>
<path d="M3140 4380 c0 -5 0 -12 0 -15 0 -12 14 -4 16 10 1 8 -2 15 -7 15 -5
0 -9 -4 -9 -10z"/>
<path d="M3025 2380 c-3 -6 1 -7 9 -4 18 7 21 14 7 14 -6 0 -13 -4 -16 -10z"/>
<path d="M3050 2360 c0 -5 5 -10 10 -10 6 0 10 5 10 10 0 6 -4 10 -10 10 -5 0
-10 -4 -10 -10z"/>
<path d="M3026 2287 c3 -10 9 -15 12 -12 3 3 0 11 -7 18 -10 9 -11 8 -5 -6z"/>
<path d="M4274 3913 c3 -4 17 -8 29 -10 17 -2 19 -1 7 7 -17 11 -47 14 -36 3z"/>
<path d="M4110 3890 c8 -5 20 -10 25 -10 6 0 3 5 -5 10 -8 5 -19 10 -25 10 -5
0 -3 -5 5 -10z"/>
<path d="M4219 3872 c-1 -4 -1 -10 0 -14 2 -12 -17 -9 -25 3 -5 8 -10 6 -16
-5 -10 -18 -39 -22 -35 -5 1 6 -4 14 -12 17 -8 2 -11 0 -7 -6 3 -6 -2 -16 -11
-22 -17 -11 -17 -11 0 -6 11 3 20 0 23 -9 4 -8 10 -12 15 -9 5 3 5 -6 0 -20
-8 -19 -6 -26 5 -30 8 -3 13 -2 10 3 -3 5 3 11 14 14 11 3 20 10 20 16 0 6 -7
8 -16 4 -12 -4 -15 -1 -12 13 5 26 47 29 78 4 l25 -19 -25 4 c-14 3 -26 9 -28
15 -2 5 -13 10 -25 10 -21 0 -21 -1 3 -17 14 -10 28 -17 33 -15 4 1 7 -2 7 -6
0 -4 11 -8 24 -8 24 0 31 24 11 38 -5 4 -10 15 -10 24 0 16 -44 41 -46 26z"/>
<path d="M4110 3806 c0 -9 5 -16 10 -16 6 0 10 4 10 9 0 6 -4 13 -10 16 -5 3
-10 -1 -10 -9z"/>
<path d="M4231 3764 c13 -12 21 -14 35 -5 11 6 15 11 9 11 -5 1 -21 4 -35 6
-23 4 -24 3 -9 -12z"/>
<path d="M4098 3743 c6 -2 10 -8 8 -12 -3 -4 1 -8 9 -8 11 0 12 4 4 14 -6 7
-17 13 -23 12 -7 0 -6 -2 2 -6z"/>
<path d="M4095 3690 c-3 -5 -1 -10 4 -10 6 0 11 5 11 10 0 6 -2 10 -4 10 -3 0
-8 -4 -11 -10z"/>
<path d="M5025 3601 c-45 -27 -65 -63 -65 -117 0 -39 5 -51 33 -79 63 -63 154
-52 205 25 37 55 15 118 -58 168 -40 27 -75 28 -115 3z"/>
<path d="M5915 1729 c-9 -14 -2 -20 14 -10 8 6 9 11 3 15 -6 3 -14 1 -17 -5z"/>
<path d="M5023 2070 c-64 -39 -86 -118 -49 -174 24 -37 97 -69 137 -61 43 10
87 51 100 95 10 32 9 44 -7 76 -37 75 -117 104 -181 64z"/>
<path d="M7710 1596 c0 -7 6 -18 13 -24 10 -8 13 -6 14 8 1 10 -5 21 -13 24
-8 3 -14 -1 -14 -8z"/>
<path d="M7725 1160 c-3 -5 -1 -10 4 -10 6 0 11 5 11 10 0 6 -2 10 -4 10 -3 0
-8 -4 -11 -10z"/>
<path d="M1895 1250 c-31 -12 -64 -53 -75 -91 -17 -57 -12 -208 7 -263 26 -72
58 -89 153 -82 93 8 157 37 185 86 17 30 20 53 20 155 0 126 -12 177 -46 195
-21 12 -216 12 -244 0z m171 -115 c4 -8 7 -47 8 -85 1 -58 -2 -73 -20 -91 -26
-25 -110 -31 -125 -8 -16 23 -7 178 11 189 25 16 120 12 126 -5z"/>
<path d="M8410 1261 c-36 -4 -71 -11 -78 -15 -29 -18 -45 -73 -50 -171 -8
-192 40 -255 194 -255 77 0 117 18 156 71 28 37 41 147 28 237 -10 76 -19 101
-42 120 -19 15 -128 22 -208 13z m134 -133 c11 -41 7 -163 -6 -176 -7 -7 -33
-12 -60 -12 -64 0 -82 26 -82 120 1 37 4 72 8 79 4 6 34 11 70 11 58 0 64 -2
70 -22z"/>
<path d="M6245 1150 c3 -5 8 -10 11 -10 2 0 4 5 4 10 0 6 -5 10 -11 10 -5 0
-7 -4 -4 -10z"/>
<path d="M6277 1143 c-14 -13 -6 -23 19 -23 23 0 24 2 10 15 -16 17 -20 18
-29 8z"/>
<path d="M6200 1119 c0 -5 5 -7 10 -4 6 3 10 8 10 11 0 2 -4 4 -10 4 -5 0 -10
-5 -10 -11z"/>
<path d="M6295 1100 c-3 -5 -1 -10 4 -10 6 0 11 5 11 10 0 6 -2 10 -4 10 -3 0
-8 -4 -11 -10z"/>
<path d="M6270 1015 c0 -7 30 -13 34 -7 3 4 -4 9 -15 9 -10 1 -19 0 -19 -2z"/>
<path d="M6250 979 c0 -5 5 -7 10 -4 6 3 10 8 10 11 0 2 -4 4 -10 4 -5 0 -10
-5 -10 -11z"/>
<path d="M6263 893 c9 -8 47 -11 47 -4 0 5 -11 9 -25 9 -14 0 -24 -2 -22 -5z"/>
<path d="M6306 732 c-3 -5 1 -9 9 -9 8 0 12 4 9 9 -3 4 -7 8 -9 8 -2 0 -6 -4
-9 -8z"/>
<path d="M6375 720 c3 -5 8 -10 11 -10 2 0 4 5 4 10 0 6 -5 10 -11 10 -5 0 -7
-4 -4 -10z"/>
<path d="M6400 660 c0 -5 5 -10 10 -10 6 0 10 5 10 10 0 6 -4 10 -10 10 -5 0
-10 -4 -10 -10z"/>
<path d="M5040 631 c0 -6 4 -12 8 -15 5 -3 9 1 9 9 0 8 -4 15 -9 15 -4 0 -8
-4 -8 -9z"/>
<path d="M1836 9656 l7 -83 -51 -7 c-70 -9 -218 -85 -271 -138 -23 -24 -57
-72 -74 -108 -30 -61 -32 -70 -32 -180 0 -104 3 -120 27 -173 54 -115 175
-204 333 -244 l70 -18 3 -90 c2 -50 0 -118 -3 -152 l-7 -62 -31 5 c-60 11
-154 64 -220 124 l-66 60 -48 -55 c-65 -76 -103 -134 -103 -158 0 -30 108
-128 183 -165 56 -28 157 -58 265 -78 21 -4 22 -9 22 -94 l0 -90 90 0 90 0 0
39 c0 21 3 65 6 98 l7 61 49 5 c60 8 165 64 229 124 144 134 167 384 50 532
-45 56 -129 104 -248 141 l-103 32 0 159 0 160 23 -6 c48 -15 114 -48 164 -82
62 -43 90 -40 141 15 45 49 92 117 92 135 0 23 -110 105 -197 148 -56 27 -102
42 -145 47 l-63 7 -3 88 -3 87 -95 0 -95 0 7 -84z m4 -501 c0 -164 1 -161 -76
-126 -31 14 -47 30 -63 63 -27 57 -27 85 3 129 23 34 94 79 124 79 9 0 12 -36
12 -145z m252 -485 c94 -63 92 -171 -5 -234 -74 -47 -77 -44 -77 97 0 131 5
167 24 167 7 0 33 -14 58 -30z"/>
<path d="M9002 9315 c-77 -80 -207 -222 -288 -316 -82 -95 -212 -244 -289
-332 -178 -205 -306 -354 -325 -379 -13 -19 -12 -22 9 -39 37 -30 73 -24 138
26 98 73 354 347 574 615 61 74 145 173 188 219 121 133 230 274 231 298 0 27
-35 53 -71 53 -22 0 -55 -29 -167 -145z"/>
<path d="M8238 9430 c-74 -22 -154 -98 -194 -184 -19 -41 -24 -67 -24 -136 0
-106 18 -149 96 -230 64 -67 95 -80 191 -80 127 0 228 63 290 182 23 45 28 65
28 133 0 67 -4 89 -27 135 -28 55 -81 118 -122 145 -57 38 -173 55 -238 35z
m142 -165 c98 -50 109 -213 21 -288 -45 -38 -89 -43 -139 -18 -55 28 -85 73
-90 136 -6 69 11 117 54 155 28 24 44 30 80 30 25 0 58 -7 74 -15z"/>
<path d="M2852 9140 c-6 -14 -33 -38 -61 -54 -57 -34 -56 -38 15 -87 36 -24
47 -27 69 -19 29 11 105 69 105 81 0 4 -21 18 -47 32 -27 13 -53 35 -60 48
l-12 23 -9 -24z"/>
<path d="M3865 9068 c-27 -11 -90 -35 -140 -53 -215 -79 -622 -284 -800 -402
-333 -221 -368 -248 -455 -344 -97 -108 -154 -151 -239 -184 -64 -24 -71 -29
-75 -58 -2 -18 -9 -61 -14 -97 -5 -36 -5 -66 -1 -68 5 -2 9 -8 9 -14 0 -6 -6
-6 -15 2 -10 9 -19 9 -27 2 -12 -10 -18 -12 -35 -12 -5 0 -1 -5 7 -10 9 -6 10
-10 3 -10 -6 0 -14 4 -17 8 -7 11 -66 3 -66 -9 0 -5 11 -9 23 -9 14 0 24 -6
24 -15 0 -8 -4 -12 -8 -9 -4 2 -9 1 -12 -3 -2 -5 -3 -3 -1 3 1 6 -8 12 -21 12
-16 0 -22 -5 -18 -14 4 -10 0 -12 -12 -7 -15 5 -17 2 -13 -15 4 -15 2 -22 -8
-22 -8 0 -18 -8 -21 -17 -4 -10 -17 -29 -30 -43 -13 -14 -23 -28 -23 -33 0 -4
-21 -36 -48 -70 -51 -66 -134 -206 -147 -246 l-7 -24 38 23 c22 13 149 80 284
148 135 68 252 130 261 138 8 8 20 14 26 14 6 0 59 23 119 52 146 70 225 77
276 24 28 -28 39 -44 81 -116 66 -113 92 -149 104 -145 7 2 10 -2 7 -10 -5
-13 124 -218 164 -261 11 -11 23 -30 26 -42 4 -13 12 -19 18 -16 6 4 8 3 5 -3
-3 -5 9 -34 28 -64 19 -29 38 -61 41 -71 3 -10 10 -18 15 -18 5 0 9 -5 9 -11
0 -15 135 -218 173 -260 9 -10 17 -26 17 -34 0 -22 18 -18 25 5 4 12 29 44 56
73 46 49 63 77 37 61 -7 -4 -8 -3 -4 5 4 6 12 9 17 5 5 -3 27 13 47 37 38 43
89 92 131 126 18 14 22 25 17 41 -4 13 -12 19 -18 16 -6 -4 -8 -3 -5 3 4 6 0
41 -8 79 -31 145 -14 318 41 411 13 23 21 44 17 46 -5 3 -69 21 -143 41 -454
121 -698 240 -755 367 -10 21 -21 37 -24 35 -13 -8 5 110 22 140 45 86 187
164 414 228 167 48 460 106 530 106 l42 0 6 48 c5 42 32 175 70 347 26 117 43
215 36 214 -3 0 -28 -9 -56 -21z m-2075 -1672 c0 -3 -4 -8 -10 -11 -5 -3 -10
-1 -10 4 0 6 5 11 10 11 6 0 10 -2 10 -4z"/>
<path d="M6510 9077 c0 -7 9 -55 20 -107 11 -52 31 -157 44 -232 14 -75 30
-156 36 -180 7 -24 11 -45 9 -48 -5 -6 36 -15 206 -45 229 -41 536 -133 643
-193 26 -14 68 -47 94 -73 95 -95 89 -200 -18 -299 -83 -77 -184 -131 -364
-197 -146 -53 -165 -59 -320 -98 -80 -21 -146 -38 -147 -39 -1 -1 11 -22 26
-47 36 -57 48 -107 57 -234 5 -61 1 -102 -15 -175 -25 -113 -26 -131 -7 -105
13 18 14 17 11 -8 -2 -14 3 -31 11 -38 10 -8 14 -8 14 0 0 6 5 11 10 11 6 0 9
-3 9 -7 -5 -32 2 -44 22 -38 14 5 19 3 15 -3 -11 -18 5 -43 24 -37 14 4 17 1
14 -12 -3 -12 22 -46 76 -103 43 -47 82 -93 85 -102 10 -28 19 -22 38 26 10
24 34 71 53 103 20 32 49 83 66 113 47 86 185 315 253 420 86 133 115 186 107
194 -4 4 1 12 11 17 9 6 14 15 11 21 -4 6 -3 8 4 5 6 -4 27 23 50 65 53 97 70
111 142 116 59 4 70 1 155 -48 90 -51 393 -200 408 -200 22 0 296 -145 409
-217 22 -13 42 -22 45 -20 6 7 -23 63 -62 117 -18 25 -67 97 -110 160 -43 63
-121 167 -174 230 -102 122 -392 416 -477 484 -28 23 -79 65 -113 94 -68 57
-384 270 -521 351 -176 104 -432 228 -625 302 -27 11 -59 23 -70 28 -124 52
-155 62 -155 48z"/>
<path d="M8910 8833 c-56 -36 -127 -115 -151 -168 -23 -50 -25 -171 -4 -242
43 -145 217 -233 370 -188 46 13 70 28 115 73 72 73 100 141 100 247 0 94 -23
146 -91 210 -66 62 -126 87 -219 93 -69 3 -78 1 -120 -25z m190 -148 c59 -31
84 -113 64 -214 -9 -43 -56 -89 -102 -97 -48 -9 -118 28 -144 76 -37 70 -14
205 41 235 34 19 105 19 141 0z"/>
<path d="M968 8842 c-1 -4 -24 -23 -50 -42 -27 -18 -48 -36 -48 -39 0 -3 23
-17 50 -30 l49 -24 61 18 c47 14 64 25 71 43 14 37 12 40 -46 52 -30 6 -57 16
-60 21 -7 11 -22 12 -27 1z"/>
<path d="M1202 7873 c-5 -10 -13 -32 -16 -49 -8 -37 -35 -64 -93 -93 -50 -25
-54 -37 -15 -46 48 -10 90 -43 112 -85 11 -22 25 -40 30 -40 5 0 20 22 35 48
16 29 42 58 65 72 48 29 50 43 11 60 -40 16 -56 36 -78 94 -20 54 -37 67 -51
39z"/>
<path d="M9154 7829 c-16 -43 -27 -57 -63 -79 -25 -14 -46 -30 -48 -35 -2 -6
17 -22 41 -37 35 -21 48 -36 57 -67 16 -53 50 -57 70 -10 7 17 34 47 61 66 26
19 48 38 48 41 0 4 -18 23 -41 43 -25 21 -48 53 -58 80 -23 62 -44 62 -67 -2z"/>
<path d="M2445 7570 c-55 -27 -127 -61 -160 -76 -87 -39 -212 -101 -355 -176
-69 -36 -206 -107 -305 -158 -216 -112 -228 -120 -252 -167 -14 -28 -47 -57
-138 -118 -66 -44 -156 -108 -201 -141 -45 -33 -131 -89 -192 -123 l-111 -62
51 -72 c29 -40 71 -94 94 -122 23 -27 99 -126 169 -220 71 -93 157 -206 191
-250 35 -44 109 -138 164 -209 56 -70 124 -160 152 -200 28 -39 95 -126 148
-192 54 -67 102 -129 107 -139 10 -17 14 -16 67 8 40 19 55 30 50 39 -12 21
-95 129 -139 183 -23 28 -106 136 -185 240 -79 105 -162 213 -185 240 -60 71
-258 332 -342 450 -39 55 -92 124 -117 153 l-46 54 57 39 c32 21 94 67 138
102 44 35 122 90 173 122 50 31 95 61 98 66 9 16 40 10 59 -11 18 -20 18 -21
-3 -43 -12 -12 -75 -54 -140 -93 -101 -62 -117 -75 -114 -95 2 -13 4 -54 5
-92 2 -65 1 -68 -30 -93 -28 -22 -31 -28 -22 -52 5 -15 47 -72 94 -127 46 -55
104 -125 127 -155 24 -30 95 -120 159 -200 63 -80 148 -190 189 -245 40 -55
104 -136 140 -180 37 -44 90 -115 119 -158 29 -43 58 -80 66 -83 10 -4 67 17
83 31 7 7 -182 280 -231 335 -55 60 -52 64 18 24 l70 -39 136 -3 c134 -4 137
-5 148 -29 7 -15 7 -22 1 -18 -17 11 -11 -8 30 -87 22 -43 35 -78 30 -78 -6 0
-10 -6 -10 -14 0 -12 10 -12 68 1 97 22 172 52 172 69 0 8 -27 56 -61 107 -74
113 -467 704 -537 807 -66 97 -221 340 -290 455 -30 50 -72 115 -93 147 -21
31 -39 59 -39 62 0 3 17 10 38 15 20 6 64 27 97 47 96 58 487 257 645 328 80
36 166 77 191 91 26 14 51 25 57 25 5 0 56 -71 112 -157 57 -87 123 -189 149
-226 25 -37 84 -127 130 -200 109 -173 292 -437 303 -437 4 0 21 18 38 41 l29
41 -22 39 c-12 22 -46 72 -76 112 -30 40 -82 117 -116 172 -129 208 -409 633
-471 713 -34 43 -58 41 -179 -18z m-916 -932 c15 -14 33 -38 41 -53 14 -26 13
-29 -5 -39 -47 -26 -85 -74 -85 -106 0 -40 45 -85 101 -100 37 -10 89 -62 89
-88 0 -7 4 -12 9 -12 5 0 -1 -26 -14 -57 -29 -73 -49 -193 -41 -247 l6 -41
-47 54 c-27 30 -75 89 -108 132 -33 43 -95 120 -137 172 l-78 95 15 35 c8 20
18 74 21 121 l7 84 37 17 c21 9 64 35 96 56 50 33 60 36 63 22 1 -10 15 -30
30 -45z m340 -490 c40 -62 40 -62 21 -83 -10 -11 -28 -42 -40 -69 l-21 -50 56
-52 c68 -64 84 -70 142 -53 38 10 47 10 54 -2 4 -8 28 -43 53 -79 42 -58 44
-65 29 -74 -10 -6 -56 -10 -102 -9 -73 2 -93 6 -149 34 -72 35 -136 88 -158
131 -25 48 -35 127 -24 188 12 66 66 180 85 180 7 0 32 -28 54 -62z m141 -205
c0 -44 -47 -5 -56 48 l-5 34 30 -35 c17 -19 31 -40 31 -47z"/>
<path d="M7757 7584 c-29 -44 -249 -404 -312 -509 -255 -426 -306 -516 -300
-532 3 -10 14 -29 25 -42 l20 -23 20 23 c37 43 78 105 151 225 282 467 372
613 424 689 27 39 50 72 52 75 2 2 30 -10 61 -27 31 -17 143 -75 247 -128 178
-91 223 -116 400 -219 104 -60 325 -205 325 -212 0 -3 -15 -27 -33 -53 -45
-61 -121 -191 -192 -326 -31 -60 -90 -159 -129 -220 -40 -60 -111 -178 -159
-261 -47 -83 -124 -214 -170 -290 -46 -77 -109 -183 -141 -237 -31 -54 -63
-108 -71 -121 l-16 -24 78 -25 c43 -14 93 -29 111 -32 28 -6 32 -4 32 14 0 34
51 111 73 111 5 0 17 8 26 18 29 34 55 42 89 30 67 -26 57 -74 -32 -156 -40
-36 -52 -43 -74 -37 -46 11 -12 -11 63 -40 38 -15 86 -30 105 -32 34 -5 40 -1
109 73 41 44 100 113 131 154 80 104 167 202 217 245 61 52 411 482 446 548
18 34 18 34 -8 73 -30 44 -28 79 6 146 10 20 19 44 19 52 0 8 -28 33 -62 57
-134 90 -204 155 -227 209 -12 29 -21 54 -19 56 2 2 28 -16 58 -39 30 -23 91
-68 135 -100 44 -31 116 -91 160 -133 43 -42 103 -95 132 -116 29 -22 53 -42
53 -45 0 -2 -46 -59 -103 -126 -57 -67 -134 -162 -172 -212 -76 -100 -257
-321 -306 -375 -32 -35 -205 -250 -328 -409 -35 -45 -72 -86 -83 -92 -10 -5
-18 -14 -18 -19 0 -14 69 -47 110 -54 33 -5 38 -2 97 67 164 192 244 289 300
362 34 44 125 157 202 250 78 94 169 210 204 259 34 49 110 153 169 232 58 79
109 147 112 152 3 5 -38 39 -92 75 -105 70 -176 124 -270 203 -33 28 -124 96
-202 150 -78 55 -163 114 -189 132 -25 18 -90 55 -143 83 -53 27 -162 91 -242
143 -80 51 -189 113 -243 136 -54 24 -195 90 -313 148 -118 57 -231 106 -252
109 -33 5 -38 2 -61 -33z m1413 -1055 c54 -36 52 -32 31 -114 -16 -62 -14
-136 5 -157 16 -16 14 -20 -19 -61 -19 -24 -86 -97 -147 -162 -62 -66 -123
-134 -137 -152 -14 -18 -28 -33 -32 -33 -3 0 -6 46 -6 103 -1 89 -5 110 -29
167 -43 102 -43 101 -7 94 28 -6 32 -4 42 25 6 17 15 28 20 25 5 -3 9 6 9 20
0 21 5 26 28 27 24 0 25 1 7 9 -17 7 -17 9 -2 9 9 1 17 8 17 16 0 8 4 15 9 15
5 0 15 16 22 34 7 19 16 33 21 30 4 -3 8 0 8 5 0 6 -5 11 -11 11 -5 0 -8 4 -4
9 3 5 1 12 -3 15 -5 3 -7 18 -4 33 2 16 2 26 -1 23 -3 -3 -7 -17 -9 -32 -2
-15 -12 -35 -21 -46 -9 -10 -15 -22 -12 -25 3 -4 2 -5 -2 -2 -4 3 -8 16 -10
28 -2 18 -1 19 8 7 8 -12 10 -9 6 12 -3 19 0 25 10 21 8 -3 13 2 13 15 0 12 5
24 10 27 6 3 10 16 10 28 0 12 9 37 20 55 l20 33 45 -39 c25 -22 68 -55 95
-73z m-360 41 c-11 -22 -23 -40 -25 -40 -3 0 4 18 15 40 11 22 23 40 25 40 3
0 -4 -18 -15 -40z m120 -215 c0 -17 -2 -17 -10 -5 -5 8 -10 24 -10 35 0 17 2
17 10 5 5 -8 10 -24 10 -35z m-98 -121 c-6 -11 -11 -13 -16 -5 -4 6 -2 11 3
11 6 0 12 10 12 23 1 16 3 17 6 5 2 -10 0 -25 -5 -34z m-95 -194 c25 -79 23
-174 -6 -229 -27 -52 -74 -98 -120 -118 -48 -21 -178 -44 -207 -37 -29 7 -24
19 47 105 36 42 54 57 59 49 6 -10 16 -7 41 11 54 37 59 48 53 110 -7 60 11
116 57 181 l22 30 18 -23 c10 -13 26 -49 36 -79z"/>
<path d="M2355 7321 c-11 -3 -123 -58 -250 -122 -126 -64 -240 -118 -253 -121
-21 -6 -22 -10 -16 -60 9 -81 -9 -133 -57 -164 -33 -20 -39 -29 -33 -47 12
-40 188 -308 661 -1007 54 -80 124 -186 155 -236 61 -96 91 -130 106 -120 5 3
15 26 21 51 11 42 9 49 -19 105 -17 34 -62 108 -100 165 -39 57 -70 106 -70
109 0 3 17 -1 38 -8 55 -20 147 -27 231 -18 l75 7 38 55 c22 30 48 72 59 93
l20 38 -48 -24 c-99 -50 -146 -59 -266 -55 -98 3 -119 7 -164 31 -76 39 -120
82 -155 151 -28 55 -30 66 -24 126 12 132 93 241 224 303 62 29 75 32 167 32
86 -1 108 -5 157 -27 112 -52 207 -174 217 -281 l6 -61 53 78 c28 43 52 83 52
89 0 7 -14 26 -32 42 -36 34 -172 238 -309 465 -51 85 -114 189 -140 230 l-46
75 -69 5 c-80 6 -96 14 -146 69 -37 41 -46 45 -83 32z m37 -142 c33 -45 98
-71 157 -63 l46 6 30 -63 c17 -34 74 -130 128 -212 53 -83 96 -151 94 -153 -1
-2 -20 1 -42 7 -60 14 -203 11 -263 -5 -63 -17 -120 -50 -194 -110 -72 -59
-114 -125 -132 -210 -7 -37 -16 -69 -18 -72 -3 -2 -32 38 -66 88 -33 51 -84
127 -113 168 -28 41 -74 108 -102 147 l-49 73 30 34 c28 32 52 116 52 184 0
12 6 22 14 22 13 0 209 93 336 160 30 16 58 29 62 29 4 1 18 -13 30 -30z"/>
<path d="M2229 6975 c-36 -20 -58 -57 -66 -110 -5 -38 -2 -50 21 -79 53 -70
136 -71 186 -3 57 78 48 142 -25 184 -46 26 -79 28 -116 8z"/>
<path d="M7945 7289 c-36 -52 -73 -70 -152 -77 l-63 -5 -91 -156 c-51 -86
-115 -193 -143 -238 -28 -45 -72 -119 -99 -165 -26 -46 -70 -118 -98 -160
l-51 -77 33 -39 32 -39 25 48 c67 136 193 212 352 213 75 1 92 -3 150 -30 76
-37 145 -103 185 -176 39 -72 47 -193 18 -259 -60 -135 -225 -217 -415 -207
l-87 5 18 -36 c11 -20 30 -47 44 -60 24 -22 31 -23 99 -16 153 15 266 71 379
187 64 66 64 50 -1 -37 -36 -49 -73 -108 -183 -295 -31 -52 -67 -110 -81 -129
-33 -44 -35 -94 -4 -115 32 -23 51 -20 69 12 22 38 99 160 214 342 178 281
331 537 485 810 20 36 46 82 58 103 12 21 22 44 22 51 0 8 -24 32 -53 54 -30
23 -62 57 -72 78 -17 36 -17 44 -3 147 2 13 -14 28 -57 51 -33 18 -96 53 -140
78 -116 66 -336 178 -350 178 -7 0 -25 -18 -40 -41z m161 -132 c43 -24 127
-69 185 -101 l106 -58 12 -83 c7 -46 21 -100 32 -119 26 -50 24 -74 -14 -137
-18 -30 -46 -94 -62 -144 -16 -49 -43 -115 -59 -145 -16 -30 -51 -98 -78 -150
-27 -52 -53 -99 -57 -103 -4 -4 -8 36 -9 90 -1 213 -97 370 -279 460 -49 23
-73 28 -158 31 -56 2 -118 -1 -140 -7 -21 -6 -41 -9 -43 -6 -2 2 8 23 23 47
105 170 142 232 173 294 l35 72 51 6 c85 10 123 25 158 61 18 19 35 35 38 35
4 0 42 -19 86 -43z"/>
<path d="M7996 6946 c-32 -30 -36 -39 -36 -83 0 -65 31 -114 81 -127 48 -12
81 -2 124 35 30 27 35 37 35 76 0 85 -44 133 -122 133 -39 0 -52 -5 -82 -34z"/>
<path d="M2718 6454 c-67 -35 -82 -62 -81 -148 0 -76 -5 -86 -48 -86 -32 0
-45 14 -54 60 -11 59 -16 70 -29 70 -21 0 -67 -40 -77 -68 -24 -61 52 -155
135 -167 121 -19 176 31 176 160 0 56 8 75 31 75 30 0 55 -33 63 -80 8 -51 21
-70 47 -70 28 0 39 32 39 113 l0 75 -64 46 c-36 25 -71 46 -78 46 -7 -1 -34
-12 -60 -26z"/>
<path d="M7535 6459 c-5 -5 -29 -23 -52 -39 -61 -42 -69 -121 -22 -199 22 -37
107 -81 155 -81 30 0 93 38 123 73 7 9 22 17 32 17 26 0 24 -30 -6 -90 -39
-77 -33 -96 26 -80 19 5 54 30 79 55 24 25 50 45 57 45 26 0 26 30 -1 51 -14
11 -26 31 -26 43 0 35 -37 74 -80 86 -60 16 -138 -6 -165 -46 -19 -30 -67 -32
-95 -4 -34 34 -23 68 33 104 35 23 34 42 -3 61 -33 17 -41 18 -55 4z"/>
<path d="M1086 5878 c-42 -212 -77 -563 -81 -788 -3 -228 23 -602 50 -715 3
-11 17 -74 31 -140 14 -66 29 -124 32 -130 4 -5 7 -12 7 -15 4 -28 40 -159 43
-156 2 2 14 51 27 108 30 132 140 463 176 530 10 18 8 24 -7 36 -17 13 -17 14
-1 9 10 -4 17 -1 17 6 0 8 3 8 9 -2 6 -10 10 -10 16 -1 4 6 0 19 -8 28 -37 42
-57 102 -57 167 0 37 5 75 10 85 15 27 118 96 198 132 81 36 152 71 152 76 0
11 -127 151 -138 151 -6 1 -11 5 -10 10 3 8 -134 199 -207 291 -80 100 -194
255 -226 307 -24 39 -27 40 -33 11z"/>
<path d="M9309 5657 c-30 -34 -84 -100 -119 -147 -85 -113 -241 -301 -308
-372 -30 -32 -52 -63 -49 -70 3 -7 38 -26 78 -42 94 -38 137 -64 177 -110 48
-54 46 -89 -8 -201 l-39 -80 22 -17 c12 -10 16 -18 10 -18 -7 0 -13 -9 -13
-19 0 -11 6 -26 13 -33 6 -7 13 -18 14 -23 1 -6 19 -53 39 -105 20 -52 38
-102 40 -110 1 -8 22 -82 46 -164 l42 -149 15 34 c8 19 29 81 47 139 25 82 30
108 21 119 -9 11 -9 13 0 8 13 -8 29 46 19 62 -4 5 -2 12 3 15 5 4 13 32 17
64 5 31 9 59 9 62 1 3 5 41 9 85 4 44 9 98 11 120 12 107 14 470 5 633 -9 163
-32 368 -43 378 -2 2 -28 -24 -58 -59z"/>
</g>
</svg>
